<mxfile host="app.diagrams.net" agent="Mozilla/5.0 (Windows NT 10.0; Win64; x64) AppleWebKit/537.36 (KHTML, like Gecko) Chrome/131.0.0.0 Safari/537.36" version="25.0.3">
  <diagram name="Page-1" id="WuQgfMo_3kEzIh6NnYDK">
    <mxGraphModel dx="2245" dy="701" grid="1" gridSize="10" guides="1" tooltips="1" connect="1" arrows="1" fold="1" page="1" pageScale="1" pageWidth="850" pageHeight="1100" math="0" shadow="0">
      <root>
        <mxCell id="0" />
        <mxCell id="1" parent="0" />
        <mxCell id="qRNsrfF-e12Ca53EKvlB-1" value="" style="rounded=1;whiteSpace=wrap;html=1;" vertex="1" parent="1">
          <mxGeometry x="160" y="230" width="120" height="200" as="geometry" />
        </mxCell>
        <mxCell id="qRNsrfF-e12Ca53EKvlB-3" value="" style="shape=filledEdge;curved=0;rounded=0;fixDash=1;endArrow=none;strokeWidth=10;fillColor=#ffffff;edgeStyle=orthogonalEdgeStyle;html=1;entryX=0.653;entryY=1.016;entryDx=0;entryDy=0;entryPerimeter=0;" edge="1" parent="1" target="qRNsrfF-e12Ca53EKvlB-9">
          <mxGeometry width="60" height="40" relative="1" as="geometry">
            <mxPoint x="280" y="400" as="sourcePoint" />
            <mxPoint x="320" y="380" as="targetPoint" />
          </mxGeometry>
        </mxCell>
        <mxCell id="qRNsrfF-e12Ca53EKvlB-4" value="" style="verticalLabelPosition=bottom;verticalAlign=top;html=1;shape=mxgraph.basic.plaque;dx=6;whiteSpace=wrap;" vertex="1" parent="1">
          <mxGeometry x="407.5" y="310" width="62.5" height="40" as="geometry" />
        </mxCell>
        <mxCell id="qRNsrfF-e12Ca53EKvlB-5" value="Room&amp;nbsp;" style="text;html=1;align=center;verticalAlign=middle;whiteSpace=wrap;rounded=0;" vertex="1" parent="1">
          <mxGeometry x="190" y="310" width="60" height="30" as="geometry" />
        </mxCell>
        <mxCell id="qRNsrfF-e12Ca53EKvlB-9" value="Mikro" style="text;html=1;align=center;verticalAlign=middle;whiteSpace=wrap;rounded=0;" vertex="1" parent="1">
          <mxGeometry x="425" y="317.5" width="25" height="25" as="geometry" />
        </mxCell>
        <mxCell id="qRNsrfF-e12Ca53EKvlB-10" value="" style="shape=image;verticalLabelPosition=bottom;labelBackgroundColor=default;verticalAlign=top;aspect=fixed;imageAspect=0;image=data:image/png,iVBORw0KGgoAAAANSUhEUgAAAccAAAFCCAIAAAAL44GOAAAgAElEQVR4AeydB3wU1dbAJ2VLKgm9YxAiUiSgDxAeCAiCDxALNhTfU7B91qc+FDAFpEpvye5mEwIIqKAgIk0hiCAiLRBAuhBKerZPnzkfd87uZNIwKGCAnd/9bW5mZ+7MnJn577nnnnsOBf7FLwG/BPwS8Evg2kmAunZN+VvyS8AvAb8E/BIAP1X9D4FfAn4J+CVwLSXgp+q1lKa/Lb8E/BLwS8BPVf8z4JeAXwJ+CVxLCfipei2l6W/LLwG/BPwS8FPV/wz4JeCXgF8C11ICfqpeS2n62/JLwC8BvwT8VPU/A34J+CXgl8C1lICfqtdSmv62/BLwS8AvAT9V/c+AXwJ+CfglcC0l4KfqtZSmvy2/BPwS8EvgVqAqwzB4I9VKdnY2AIiCKMuy/x5LksQriyRJKI2jR4/iGu2nKIiiIErKIiuLX3R+Cfgl8CckcCtQFQAYZQEAnufXrVv3+uuvsyxbURy3LSw8yoICWbJkybvvvosMLffpR2rFZ8a/xi+Bq5XArUZVAFi9enW3bt1UQSBJtZ/qV7dJRZZlTllQczebzcOHD79Nrt1/mX4J3HgJ3ApUVTv+DMOIgpiVldW9e3ckiBamav3GS/nvPaLD4cATwMqK5SteeOGFv/eU/Ef3S+AWlsCtQFUAoGma53kAYFl2w4YNvXr1kiQJMXoL37xqXpooiCzLMgyDAsnIyBg5cqRqY61mI/7N/BLwS6CaErgVqIo9XFEQ0a66adOm3r17V/P6b+3NEKNoLUW2chxnsVhGjBihKvi3tgT8V+eXwI2XwE1PVbVfr1a2bNnSt2/fGy/KGnhELVXVkaj09PSXXnoJf4Rq4Dn7T8kvgZtdAjc9VVE/xdvA87wkSd9//32fPn1u9htzTc7fT9VrIkZ/I34JXJUEbgWqqmoXuluqVFW119vca1XLVlmW/brqVb0h/o39ErhaCdwKVNXSU5Zl1QKgXX+1crmVtvdT9Va6m/5rqfkS8FO15t+jv3qG5X5d/D4Af1Wg/v39EriiBPxUvaJ4bokv/VS9JW6j/yJuGgncClQtJ+ytW7f269ev3Mqy/0oAlZayW92i/y1evHjUqFG3ua35Fr23/suqERLwU1WL1+tyS2oOv/BM/BaA63Kb/Y36JeCTgJ+q15Gq2q43IZpECi4++ePfK5+D9lusl937j/7TngYAqFSVZVGWydSJ23xR5XOby8F/+ddKAn6qapn116RKgg6qrQkAAsg8yLwscVgBSQSJgKyC9qru5Y3UpzkP7VdqXfN9NapeoIsyCBKI8pK09JEvklkAfqqi8PxUrcZD5N/kKiRw+1BVRVI1K1ohVtxF+Vb2UVQGIEUCWQDgABgADymSG0SHUlwgukDyyBIjA484Uz99reBR8LjqERU6g1B2G/XbihRWT1vC9iVJIAqpIAAnACMAJy5Ptb784n9EkVNP4LbVWFWeyrKMc89U8fkrV5aAJEmqnzjP86goVBp+88rt3JLf+qmqJVRVdRVtCE2O6KFELdUsXkW1LFVlN0guQlXJJStIlSSVZaVvtKYVtYpnoj1uVWBVdylX8VJVkCQBCDKAk4AWgZGWmdNefPFFRuRFkFWwltv5Nvm39B4oVFUxQTodyqLdQK3jV7f5pzbGOVLV6XRyHHebPDlXvkw/VSuSVMsyzqd7+tRPcIFSJPAooBJIrx5ALUpzkkQ624IAIgcCI4uMLLKSzEoyL8qKGUDRayXvZ2V3SFLArUIcT0N7YlivePKlrEcKcLKiNsuyKMjAySBAWtqi4aNGOmWRkwk7VFhUsEtUdl631jq8di0fASAvL2/nzp2rV6/eUsXyvX9RJJCVlYWSyMrKys3NvbUejb90NbcaVbVxAPBt8VHDa0ZUeruVwkhdqYUXwZkMrAy0UtzYtVeQ6pGAkQCpqoJVksCLVBGIPdUD4ASwK5+MBLzCYEmshKfEflCKxEqpWpGt6jlrK94Hgly4RM7eDrJdsU3wvCiJYElfNOzlF4slnlBV0Vd9IrrtstFUStX4+Pi4uLj+/fv3qWLp7V8UCXTu3Bkl0blz5/j4eJfLhTr+XwLSLbHzLUdVQfxh02aMBKjtpEgS6Qp7O7zAE+OmUnwqYUXVj3SP0dymfJLdRZHjBRZzPYkiJ0kCL7AM46FpN8u5RdLH9wC4FYR6AHiOGFPBBlCsgJWtoBviISr7xNF5PKsrw/QPHkNWEm3A20FEYkuSZE63Dnv538UyK3gvkRz/D1q5pb9G+asaa4KyqLlntL/NKIbK7tftuA5D9DIMM3HixEmTJkmSxLKsP24vANxqVJU5/ocNm3r3egBjWfE87309RA45SNjqQ6oMfHWoioZ5bKcUL5IInBO4EpDsAIUAFwHOAJwA+ThwvwN3CSSbDCyt8LQQoASABUGSPRUKoxDf+1L73s5rRlUOBIfscskOiejNDM/YLKnznh31tBs8AhBvBFxKr+v2q6EE8AZcdo3wU9X3UPzB30qpepv/QuPbc+tQFXWxa0FVr95KFFvgJYmTJE4UGVHy8CJRSJXiUnrVeSCdBSkbpF3g+Apci8FjBtdi7vw6yN8HbA6AXZIZj88CwIFDgjwRcnn5Eidd5KSLrHiBEwt5gRYFYvf0WgbIw3zNqCoCz0ARI5yX3Gcl+xm++GTawvEvvfKIDA4RWM1oVSU2hNsEsFp4aKlaUUtFgWi3v83rmH1D1VU5jvNTtQbpqtrh16t+mRXHJh9V2a3r1w7o+Q+QHMAVAJ8HQi6IF0E8Tz6lPFLkgtJC1Ey12EB2AGBxKR15J0g2EAtBuAjCOeBPCUW/yIU7oHA7FGyGgjVwOoXeG5+3bdTBVX0Pft3t4Jq4g193P7H6Oeevs6H4R+DPgGATZM5FzLGcDDkAh0HeB8IuYHcA8xOwu4D9TeaKZY4lBgNBAIlXCgsS7XXPIqNNjDJoJqDjgUQGx9CAq0Wh6n5QzmLgBPEM0Aeg4Ce4kAnnM5fNfuuNlx8EsMmSp9Qq4uU4NnjVd+Cm3kFLRj9VtdL4w7okSRzHqVRVXaxu6ufhr598TdFV0Sdjy5YtP//8848//rh58+YdO3Zs3br1+++/37Fjx4YNG37++ec9e/Zs3rz5s88+y8zMXLt27fbt23ft2pW59aezZwrIGDwAQxO07tz45VM9WsK5H+Tfv5XOrZRylknnM8C1Btzfgut7cG8lxZNJCrNNyF0j5K7hSVkLzp/BfQD430D+HaQcgDyQ82T7EXDthotrxGPW4u0fH17y2MmMAWczel5Y9I+CtLuK02KK05oVpTUuSqtfkBZdkFYrPz06b0nTI6bY82tegsItQJ8VOZtLdrHEuHoMHF/DqenM9lcOJHc9ZO1T/PMH4NkMnrMAPMiM7MwDTz75MZCKCffFS8BdBC4fuGLvnZbI+BINQIPMgCgAz4luGVgAUeSLAYoA8pUfiRLlt0FxV5DywLkLTi3jt3/y+9KRp1e8PvPlTh/8uwtALkgu1MQ1/l6oI2th/defsZuphcu92kRlUb0jbqazv+HnimaxCRMmjBkzhvSwyNSS29pGj3egplBVFMTDhw+/8MILXbt2feihh7p27Tp48OCePXsOGjSoX79+/fv379ev34ABAyIiIoKCgu67776hQ4cOHDjw/vvv79Hjga0//JJztsQ7HANsVuayQXdTe9NfPrri+d8+f/ToygFHV/U5vrr/ufVPFG971fPL+7btb9i2v1HyEyl7MgZi2Z0xuGRXEpxOh+LVkL8G7JtB+AUgC5gf4dhM5sfX8r76V+6y+wvT73ZZWzCp9UVLpGTRSZYgyRIkmgNFcyBvCuBNAYyFcqdTF02GCxndHZs+glMbwHNKEs7w9F736RTHjteKV/YsTLuzyNS0KL117ooep796DuhDwFwC90lgjwGTBZ6fwf0juLe4T6RL51ZC4VZwHgT+IjDF4HKA2y1yDp4vYOkc3nMSmN+AOwryURD3g7gT5B0g/grcXqKc0r8B/ztwR8Q9c9jvXrcvHpxr6n0+dcjc4Q0/eLIVMCdALBZFxgfW0tG8sjMObvib+rceUEvVv/VEbo6DY/YNlar4U3RznPr1PMuaQlWapgHAZrPxPO/xeACgpKRElmWXy8XzPMdxPM+PGjVq9OjRgwcP7t69+4EDBwDA6XQCgMPhwASrAAxHnzm0I/XprtTRFcNPZHT7fXHs2SVNzy5teDI1+vySZiUrOzNr/3lp8V2XFt+Vl6GU9NZ5Srm4qN3emXfZ1z8DJ+LBsRAcJiicLx5NLPjh+eKvu5Qsb1G8qJ4rrZZgDQezEVKCwRQI5gApNUALVtEcKKVSQhrltuhK0u4uXDZE/nkKFHwLRd8WZX16bPWg35fdc9Fcx50aKaXXYqxReeZGxxbEwd4U+H0zXPwWCj+HU9PYA29f2Dzk6KpuBz/reHxlz/PfPVnw/TtwJB1Ob4BLWXDxIBQeANtuAl/uBzhvKd7zYfaax/Z/2W//Fz0LdjwHOROgIJkoxZdWw9GVsNeUk/ZI3sIuJfPauVPuLbb2sTxX6+MnmwN7FIRCkRgBiOEYi88vwq+rJvrHsquDHezyq1RFi0F1dry1t/k7qaq12qjjiTzPMwwjSRLyFIC4/wDAiBEjUlJS9u3bd99992VlZQ0bNiwnJ8eXKJSXybQhHBY6eWDb7MHtqN+WDSlc1sH9WSP38mh6eVi+mSoy64pNteym2s7UKFdaBJ0eySyKYtIiOSsptLVuobmpc/k9F6ytj85pfGRBszNL2p39PO7s0pjCJWHOjADPIopPo8BKQSoFKRSYSKmEqmYK0igpPYixNi0wdYAfX4PsCfLuD45/1vd42h15S+qIyyLh80g5hSqaQhXPCYIv7y1c+gi77g3YMxp+GZW3suuFL+86t7zh2c+izi2NyFla9+ziO35fFHdx+WDnd2/KP30K+5PhhAn2T3D+8Fr+6seyU9ofT215ZlHznMWN988JOpNRv3BVO37jQ8KGJzyrny5a9lR++r8uzWtnm9ecnduImR/jMP/D+oz+4ycag+sAiPkVqMoqfhF+qvqpWi3u+alaqZj+NqoiUlV3FtRGsQchCiL6hKJfFMMwTz755NKlSzmOW79+/eDBg0VBPH/+/MMPP3z8+HGGIV6ivFTCQrFI3Jt+O/TjjMc7U9npvYtSW7GmKD7VwFuDSEk18OZoUixhfKqBtehZi54z6TiTTjTpeVMob6lFp0bTabVd1mh7eq2iRZEFGeEFi40lSwKciylXBsUsCZCXGsRFpNfPpVCSJUi2BsvWYMLW1ADRQsmWINkSABYKrEGiJYqxNC1eGOPK6GRb0umipVlxRi3XoiCCZgsFyRQspCBZz5sinalNitNalCxqWpRWP98aWWgNtWeEuBbrXYt0zjS9PS28OK1uQVrzvNQ2F6335Kbek2dtVWRtaktt6LTU95hrs6ZIcvKpIa50Q2Fq4IUFVF6yocAUUZASXWiqV2KqT6dE88kRMD9MmFfXbYlLf1YXP6wJMR8rVCXuDcQOIBDrKpnv4A1T4LMDVPrY/MWVWmpr61U1q91GW69q+z+/3m8BuCrZXSVVtfdOW7+qY94EG/+dVFX9QFULN8uyNE2zLKuCVZZlq9W6dOlS7OOvXbv2gQeIL6ooiBcvXnzhhReIb5CGqozz14Pbpj/VlTr35RC7uSUsjASTTrYEkGLWySm1SDH71lgDIV0Hi/SwKATSw7i5FDeXYudTdDLltlBuK+VeRDkzCE9dGQGujACnNcCRSnmsgcISIywOg/QQhaqBZakaJBNjq062hIqWKM+CWvKiRmJGI7sphE4PYtMpyUqBWaHq/CCYb4SFRiFVx6YFMIsC+cU6YameXxTkTqFc8yk2mRItFG8JZFL1bmuo0xppS4uyp0U604M9aRSbSklmRWtOVlpbQLkXUk4zxWUEYcHWhMU6wRogJwfAggB5QS06LS79+dCPn24F/GkQC0XJVYGqXrD6qXoTvL5/9yn6qVrpHfg7qaoGCuI4DmGKp6jSFnOmqsx1OBw7duzo378/mgvOnTvn8Xg4npElTpRcLLhE4iOVc+xn09B7qAPJvZymlrAwHEw6MAeQYtJBSgQp5iCiLZopIYXikyl2IcUvoMR5FKSGKiUEUoPkNIpPpxilsFYdaw1hrSG0ReeyBCJV5aUhsMiAPC39JDw1CJYQog5bwgRLCJsSDBlhsDiMNVG8NcCrMptCpeQomFcH5taH+VFgpqQ0Yo0V0ynHXMqTTEFaEGG9JRDtDKI5kLUEe6x6Z3qwfVGgM51yLqIQrMSSawomdl6LUc4I5xaF2M2BxclUcTJVYqJsZsppoTgLJVkIf/mUKMeizqYXoj549h7iKybbyJQEYlQlQ1U+XdVPVeIEcJvbVbXWuUrBgSv9VK1UODWCqtjxlyQJB6YQpuqUQQBAvyuWZbdt29atWzcAwBEttKsShw6RYWWGlx2S50z2VtPTnaizGUPcKXdAcmhZqoaBKYQQ1qJ0w0lX3WcqNQVAciAsDIDkAEimRBPFWyjeSopAQEkQKaaHwOIwIcPAWANpM9mglKeKEUAZuSIbI1KFVB2XQkGGDjJ0nIkSrAFCqo5PDeFNkWJybXl+HZhfHxZEEtU1lZJTKTmNkq2UbKGEZEpYoGigKV4bLgFrKsVYCUzd6aR40si/vCVQNAcTC0aKjk7R02YDnWbgMgxchk7RVYOFxQF8OtF5JTPFmKPsGXGmF6Lee7YziPmyMuHKT1Xti3GDLQC+UVbtKfzNdTwlP1X/ym3426iKw1B488pdgHalqqjiNlu3bu3Zs6d2X7KBJIoixxIfegZE5+FN6SPjqLMpfZ0pjcSUIMkUSIqZkkyBSt8/iNQrFNQK1U/JTMAqWpRCHKeCyxbiSkVQlarYFiwB2KDiYhWseFzp0O9KTPF9ZaLQAQshKKUYpRQjJBshRU9GvYhNtvxZaU+GnI9yMoT1voJrvBdoUk7JHMhbsJRuxlsD2FSi7bpTI10ZbdNGGEc/EwdCPkhkGquPqpIyl1cJIlNJXO1yt+hP/Ku1o12P+p84Je8uWoLIspykLOUevEpbl2WZ5/mioiJ0RykqKsLJLDabDXdHbQCHB0pKSlTPFnUMllYWbeOiIKpRSlETLHd6+O+FCxfUvRwOB4Y1wcNhtw9jnbhcLkmSaJpWG8GRDHVfNKahLw2uZFkWp0ipu2gr2h1xUrgsy9XwAdDe8YoxN7TfljvCTflvTaTqFQRZKVUVXVWhqsyBQB/d8NmrHanzyb2dpga8KcDLMgVJXtWyAlIrQrbMGuSy9zNYMgUjyKqgaqAyZkWsq7IliFBV2VGtqBAsrSjnI/vQXObQV3uqFbYnjrRWHZNKDAju1EhPRmz6iOAPn74HeD9VvQ+alhpXoCpupo6vOp1OpJ5W39TaDTiOQ6JJkmSz2fLy8rKzs3GDCxcuIHaxs8WybGFhYVZWFn7L83x+fj7Cuty5qf8CAE3T6C7q8XhUyGpPAAcnAMDlcqk7qr8WyG6apnfs2CHLssfjEQURAV1QUKDdXlsv925W2wKg5aafquWk+Hf/WxVVJUkguuoNpyr2rCvnYBkWK/pyVWsqoLDyBv/UZkhV1qqj0wwea60yVAW7Et6QBHJXYCF4Ax76ddWkJJU+VT3y06dPb9myZbNmze68884mTZrExMS0bdt2y5Yt+fn5yDiHwyEK4pkzZz744IN27dpRFNW4ceP77rsvPj4e20Td9sCBA48++ui9995LUVSTJk1at25tNpvtdjtuoyWatl5SUvL888+3atWqbdu2cXFx9913X+vWrXv16rVs2TIAwJY7duw4efJkbEq7L/qG79y5s2fPns2bNw8NDY2Nje3fvz/ui8fFHw/81O5bThoqVceOHVvuq7L/+qlaVh416j8/Va8WuH9MVYWhfqqq7PhDCwCyZsyYMc2aNUtMTJw1a9bYsWOnTp36/PPPh4aGDh8+XJZlm80GAOfOnevSpUvHjh0///zzXbt2ZWdnf/jhhxRFvf766xiXxG63d+vWrW/fvtu2bTt8+PCaNWveeOMNiqLmz5+PHXn1rMpVAKBbt27t2rWbrCzjx4+Pj48fOXIkRVETJkzAd7ZVq1azZs1CowT+cKqWh2+++SY2Nvb5559fuXJlVlbWtm3b3nrrrXr16lksFtwXRzUqsrUcDSqlqvZUfdv7qeqTRA38m5mZ2atXr/InpqTY45R58SAyv21c9locdSGlj9vc0GfK9Do/XYUFoCq9knT/vRaAagGuynY02uufUkKrdXQzMebyxIehal0VqUritdwwXRX7gBU/te+etl5xy4q9yPIPRfX/11LgChYAtUFemew3derU2NhYLXcuD7omJCQYDIaNGzcS7xSOe/PNN9u0aYOzWjweD3phT506NSAgYO3atZIk7d+/X6fT7d69G9txOp00Tfft27dfv36qcVY9rrbicDg6d+48YMAAh8Nhs9lUA27Xrl07deqEw78tWrRITExUXb/xMnEGY+vWrZ955hlVH8cp/IMGDerQoUNhYSEaW9XhYu01amWFw8iSJI0fP16rq2q38dW1Mdgq3k3tvdZe5c1a/zvtqn9CZn6qVhOm6mZ/RFW3EgxQyfvipapbmQhwzWNkaN+ciu9VRUpe7fbVe5owb2PZbX1vvvfvH+qqOKBUkaoAYLfb77zzzqeffhq74S1atMjIyEC7KjquSJJkt9utVqssy3a7/fDhw0ajccuWLYyyoGeLLMvI5bKnWeY/URA7duzYr18/juNQG0Vj6NixY++8804cvGrTps3UqVO1u+F08F27dlEUdfjwYdQ00fzKcVxBQcGCBQtQifaGZhfEcmzVyqoqqlZGYS1Vy8VUw0hs6u3Wnu/NWr91qIoxnEBijmwiumqO6TrpqlepY9ZoXbVEBoWqSigsRVd1kzVketV1pCom9VJS0Xiz0eAa37wD9QVTK9WhMHkDcYcq38XyOXExMy6AJKulOroqYmjKlClt2rTREgQVxh49erRt2xYA0tPTAwMDDx8+jKy02WzqUJLD4UCXAI/H06NHj+jo6BEjRnz11Vfnzp1zOBy5ubmoDqPaWOnlSJJ0//33P/zww06n0+PxOJ1OxHS/fv369OmDDgDNmzdHXZXjONSUsakBAwZgh49hGDwQx3Esy9rtdvRqwHAcpRHfFbZqeeqL/ytxPJlcjvYH9Ty1MvEJFrO74X2sPlXVB6BcRT1UDa3cIlQVQWRI6j0eRPrwhs9ejqPOpfS+PhYAP1X/3KNc+mKIJH0XL4Iokrwv3kCxkheJ3tSwPkLiXpVSVVKyhePJEF4qTWnB6t1XljgSP1GSQZR9WRtlsp033/hVUxVxM2nSpHJUxVNJTk5u3749TdOzZ8++bHhF9yOPxyNJki9sBRm+V02cDofj6aef7tixY1BQ0N13392pU6cZM2aov2pIqLJEI/+hXbVJkyaXU5vEx8fPnz//lVde6dq1a3h4+KZNm9CqGxsbO3nyZO3dQpfw3r17d+/enWVZbegi1ZMB/RYYhpFlmWEYdB5Hk4LmNLy6J8eTEL3jJyTGx4/DK9IilfyKlP5iieSeerO7l9NPS5+Nsve9qvXaa6qJ9VuCqsobxZBozwJIdPZGQtWzKb09lkYYUIp8opc+flbHjqnVMbXb43rtmop17b7VqVds4dqtuaIF4Mbpqvh+IEnxU5AFXhRJKtrSIgmyoHxbmlisQrQXbElRpQUlty15rURkpJN107xAsyTpofJ+crKsZA4XGeLNLJAwtuRTzYjrrSjA9b3/ExKJDUDlWsW3Fl2mJk6cePfdd6sdZOyGFxUVPffccy1btmRZds6cOQ0bNjx58iRGHeV5vrCwUJZldGlCvVXlrMvlysnJmTRp0gMPPKDT6ZSp2DJN01cYNerbt294ePjw4cP79u3bvn37Hj16jBw5cu3atYWFhTzPsyzboEGDefPmoTZKog8zDNolHnnkkZYtW9I0jReC3MTLRJ1XnWXjdDpV/RqR6pOG937ySnjfCRM/TkwYS+IgiSS7G+a19Ga3VEKsKwJXfskq5aTXLIPfVRV8vdI9MVS976RqzN9bhKoiSAzJaSqA6Dm4YcnIOOpM8gN+qpK5A1carfp7qCrIgiALnMiyPONhODfNehiO5si/nEgLMicA443z4s3YWO6NUhDqy0IrS0QHLbTLZy9KLgZoHvILweYAjpdJahzJIQp2EBjgOUkgRRYFAnLkKSrBpF5qBPhDqrIsK8vy+PHjK1JVkqS4uLg+ffoAwNatWymKyszMFAXR5XLZ7XaVX7NmzTp58mR+fn5ubu7u3bvRDKq6QC1ZsiQgICA7O7t87jWlJ47KIAD06dOnR48eqPaiUQIPpLKlRYsW06dPRxqKglhUVIQ2ijlz5jRo0AD9WFUPAVEQbTbbunXrzp07h0ZedGJVddiqqUpPmDg2MeEjAF4SGIEjSq4KVtInUH/D1Hq5+6l2GsjW2n6J1lZQbh/1X/Vya1DlVqAqWgU9SFXJk7XxelK1OlpkdfRT7TbVafPPblPDqCqLIHOkT07AqgCUFwnkeBE4EWiB5CgkRfGcZZGtvl6h5rWRSCZuiSNZaVgOaBo+HrulaeOxTz2+bZEVCvLB5SJtFTkFRuQ5kVUsDrIo20QolMAhk59gxRqArzB5Q71UrY5dFZXNpKSktm3bltNVZVmOiYmZMWMGhv1t0aIFOlohH3Fu1d69e2NjY9GHadCgQWiEBYDz58/b7Xaapnfu3GkwGLZt24aB3FT7ptYaAADYkfd4PIWFhYhLbfxMURDvvvvuhIQElFpBQQFWREE8cuRIaGjoN998gwNT2HMvKChYunSpXq8/deqU1mqhTvTSSB+rhJGKrqpQdfz/AGgSjoNzyrIoAkn6VqquIgOrsmurVC1XIZDVglUFropUv65a4bb8iRWV+gD4qaqO+Fes1Fiq8hLHiTQtejyCkxZdtOjiJO7qZ4wAACAASURBVCcvuxSqoq6qxHkhnXZ8izTPi2IAoD2sm2adDG9zwcxPi6PCkxvXWxemXxpm+PTpZ35a/S2cOAsOBhwcuHnwkNyHDA82AcgkXdLBL6M6EariUh0fAFEQK1I1JydnwIABnTp1QhIVFBTMmjVLr9dPnTpVhRoAPProo61bt8bh+M8++ywiIuKll17CXXCUacSIEa1bt/Z4PHl5edqx+EqpirvgcDz28VG7LCws7NChw3vvvaeRGqj87d+/f5s2bdavX696HRw5cqRdu3ZPPfVUUVEROreicbZqqhIa8wItA08sAEljAHhR8tC8WyQ/eV6dk5iyfaXUkI301Jq2EbgqVfEr8luHv6ysr73Sn8FKngrtpf6t9VtBVwVlMOIaWAC0+mNV9Qo6ozdWAEYMwHmxVeyrOs+Wq1REYZk1FVurcA5lti/7bc2hKtFfQFYSuQi8xPESx/IcKK8L57O54TYi6TQqCiTxpfWm1y43DEIiP8geWna7JdHBwfgJxbUiVjRtuCc4ILNZ4+zg4PV649rmd2wc/uKZJV/D0UtQwICHJ1oxw0OJnQwWKdM9yQmoh6gmVdFG+corrwQGBg4ePLhPnz733nvv3XffXb9+/UGDBmVnZ6uku6yBjhw5MjQ09N577x05cuTAgQOjo6PbtWt34MCB/Px8ADh58uSbb755WXPs1KlT3759H3roodjY2Dp16qxYvgKxMGnSpN69e6Mq6qW+8gcAHlIWdDVVVWatlO68886WLVv26tWrZ8+eXbp06dWr1wsvvKDS5oknnqAoqk+fPgkJCQMGDGjZsmWnTp1omsaYADNnzsSQm3hodS9txWazIXMnTZk29dPpNKskj1N6/LxiwdZ+cgCCDJwEgugtkgCSQPRZULRakoWNlzlOYFnyU6J4pPAqVYlfiq/4eFrht1Z7cn9r3U9VTUyTivxS1ijR9nxD/z5mqXNV/zpVS9v3NV6GkhXPqtLNqlhZc6kqijQrOtzgpsFDg9MFLA086y0SCxKrOHYw3k+eBm1haXBzYOeghIVCN7z7vi04eHUA9XN01KWAoBPBut8Dg85S1EFDxC8hdde16brxX09lblgPv58EgQWPEzjCVqnAZmd5xodyAv3qWAAQYTt27Jg2bdq8efOmT5+ObvBZWVkcx9ntdpZlS0pKREFEU+mOHTveeuutzp079+7de+XKlQUFBWjN9Hg8sixzHLdu3br4+Pi777572LBhEyZMsNvtOGoky/LatWu7dOmCiNBSVZblBcpSbqWWqjNnzhw/frz6mZCQMGnSJJZlcQCqsLBw2bJl77//fvv27Tt37rx9+3aMEYOuWtu2bRs4cKAoiKjMVsUoN827PWJ80qfvvveJhybczCsANwMupThYUIuTBlLcpLhdpcXhgJISsNuBY8igs9NO4iQRlw0lNKUkM1hUpFYYvazq1P7O9X6q/gFVCZVQAzX7sqoo4aNwZUWkemlbEYW+mFLld1EyCfoCYimxtXzhqXDL0iAsaptVALQMi33b1DSqiiAKMsdLjCjIPA8eD9htYC8Gjx1YG7DF3sKXAF8CXFFpYQtBLXQhuIvAZodCO+SXwKVCSJoMEZG/UNSRYH1hkCE3uiEX3QAC9I4AQyEVeIoK3B9Sa39Y4KZ7mu8c9dT5JWbIyyHmV5ojvVKlV0mQiiVhfCU+AAgvfFPVQafc3Fw0SmJaIASW6jyA8MVd1JVINIyKIgoi9tlVTwAkGg46uVwujuMcDsejjz6KsVS0nFAbvAJVVWMummtxkgLaCnDKAA5Y4WboP4sHwgts27atdp6rVgJeOYBsc3hoFiZNzUj6ZHmJHRxuclPsDkJJux1KHKWl2A42GwGorRgcRaXFZQPGCW4H2AqgOA9sRQSpsgglxU4CVj9VtXf9OtUrtauir6LXs0rxARjV8U/5AKjY0lQwsKk38D7mqjKTOPxsKgm1Vx6RPv76UKiZ3qqhqhrKzxe1L5g360mxBCtrKD6VFNI4CUpdofiIWSlGy62siVQFktOFUJWFbVvlV1/d1rTRxzrq7TrGSXUM0+sYZtYxzKxvmFXfMKuefiYputn1dLPrBpeW2rrZtXQzwg1TQ/TT9Pq5QbpFFLU62JAdEu4KNNBUcBFlsFF6DxVIU8F8kBEoyh4VBXrqYn3dOQP1faNaq+tGzXjmmY3ffCvkFZJhMuIUoPgSXB5jUamq5Ui5Ok5CLSoqwrh5KmeRWSryEFUqNGmaliRJ1f5wWhS6N+FEUnQGQJ98nPj01Vdfff/99xXfJnTXx23Uw+FJorqK1lX8FAUR+/XqwBcAXLx4EVVmbBx7+hiziuO41atXZ2VlqVRVVWA8lvLbQIygMgAjwBtvz9eHDLyz9Tgq4P+i60yuE/1pnegZ0bVJqeUrkdHTo6Km16r1aVTkp7W1JXxKdNjEuuGf1K/1SaM6Y14YvnLjem+edj9VK97367Jma6XxVRV/VQ79VQVP9volozpSZxeW9axSUkx73VcrcqriGh+5RAsJDs1YCeO8kfl9a9hUXyRTJGAqJWJFoaE3jqpJL5mCtdEIeYsXymxqIJMazKTqWYuRNYeyFiOTqvdYAzEcNUsiUiNVy6C5PGR951kOpuq/NYSq6tOg+DSSlK6yAAwNg4bsjYjeTAWsCQvZZgz8MTTgp7DAHeFBOyN1v9Qy7K5Yoo2/1g7ZUy9kb/2w/Q3CDtYJyYrQ7zXqDuiNJ3Wh+TqjFGiAAKM7wGgPMDopnZ0KclEBbiqApSg6KkwI0xcaAo8FB+4IMW6oXWd9WMSKsPApr476evXK7BISJZWY+ZTRKhKgBCGl/VThoo7Oq7Ps1UlKKrkQSVr/eXQjlSQJcwihHysaAXAv1GFxvgCyGF3xEeKobKp8R4uqClYVqUhGxD2qxuj8r4YEVC8Nk27gJagzX9WBL1yD22gv3OVysTwnAcdCLgsOGuDt97+kAl7R6+fHNNtDUVuNIb8Yjb/qQ8oXY+geLCGhe9QSFrIryrC1TsjOcMNBitoYalj6QK8VkqDcC2JI9Y5W+S0A6ht07Ss3nqq8j6HlqOqxkjjQqnZJ9EqkalmwYigWQlWfYlueqgpSeVOoAlY9Yw1krD5FWDEOKC344rlUTX8Vo+UqNZWqgiyQ7v9d7XYHGk8F6E4F64+H6g+H6bPC9FmhwQdCgvYZA/fqA/aUK8bAvSFB+8KDDxipfXpqbwi1P0x3KCzkJEUd0Ye4QiNAp4dAPR9ocAfrnYG6ksBAW0CAPYByB1DuQMpOUeco6pjReCSy1l5j2OZA45dRdVMa13/1/16e+8Pmw7l5JA5p0viPk5ISSAdIWSpSFbv2Wp6qYFJpi9tUbEF1sFdjXataJKqoqD86lEXNzY4VHATDYxG0saz6gqknie6rDodDkiTOtyBbcXd0tlURjI6u6rUUKovqo8owjMvlwhlW6lUTi4EoXsw/C1ACwMkA/xu3wRAyOjRscZMm2fXrnQ3WHQzUHa5YgvVHKhad/qAxYFf9iN9Dgp0Udcmg2920yaIL5xWvLD9V1Rt8XSs3jqoKvwiSLIGMNZBNJZH2UU9U0vORINCMxchajErP3QdNFaw+tiLjVKRidr+yHX+jaAr1FaNiYFW7/Kil3jq6qu/lV0b2RYmloVGz70OjLhhCz+kMB0JD1kVErIgI/yI87PPQ0BUhIcuNhhWa8oXR8EWI8ctw48qIkK9D9V8YAxeH6D+LCPsqLGxLSOhhY2ixXg+6IAgOBl0wr9PRuiB7cGBxYEBBYEBRMFWkC8yPDCmICD2tC/6RClpcq2HK0BFbTEvzzueAo5ioXrzAyuBO+uS9pAmjATCdl5et2j8qX1QYYQUhhvWqqIowRSMA8hSJidorygeVTfR4VUeQtDZQlXocx+Fcfp9gyXQs3BFPWBREPCt1bhUOkVVFVXx5eZ53OByq4QJVXbwumqaLiorw/Gnezoi8m4c33l1K6Z6u13hqWHQKFZwaHPZ5cOiq4NBV+pAyxRD6VaVFF7SsWeODuqDzIUZbo/qn69dNs5G0CaDop35d9boCVWm8KqoCcQmXRBBAsQC8cs9ftgCUUjWYtZCiqKXkk7UQnjKWUMYSzprDWXMob9aXaqNaO4AvaQpaSBU7gNKOWS+a1EJSraiFJFzxFUmxHvh01SrU1ZvKAuB7+ZVYGwKhamjEyuDQM0GGM8HGH5evhC+/hpWrYdUa+HotrP62kvLNOvh2HXz3HazfABs2wXfr4etvYPmX8MhQ2Wg4SVF5ITowBLMhQXRIsNsYUGIIvKgPPKMPOmoI3hdq/JWiVtWt9/2wpy4kp8HubMhnIY8GuwvcHuAlDoCVoDBxwluJE/4rA83xpbPg/xxV0d7qu2pvwBoc1ELY4Swm1CVxM7Qk4JukfqvGEFCjWWs77GqPHm0OqgVAtUWow2LaVCt4OFVXRf56lAVNE6jtssri03rJX7QJOBwOr41Vhg8+THvplfTvvocfdsLX38Gq7+DrdaSUu4PfrIOKZfU6WPMdfDoT6tXPDQy8YAjeF6JPLioEl8ujoWqpW5XfB+DaU/YKVOWRqrznyPolr9xD5fx5u6pWQySJ9kiuPTMhqSeVFMYSSmBqimRNUUqJ5E3hvNlYxhrgNa2SBKjEruptxEg2M4UqJZz3qqhG/FZhqL40n1WyglqTF7IatpbF601FVe8DQRxnRBBljgF96OeU4SQVdCLYuO7QCShwgkcClwBOnhSXUFrcIrglb6FFYCRicnOLUMJAXjEkJEFY2I9hIaejI4oDqBN66mwIlaejciICTzWrfyIqckPdesvfettuXQKnz5N5AS6RzAco5sAhACMCK8ksOHjI5+HixxP+LyHpXUn2sKxX78PUI6gh7tq1a+vWrTjuhNqc6tFZVFSUmZl59uxZ9blHXKojUYg/7V7oaY/GU4xqiiphSUkJGgQQrDgJSu3yo5KLSVl27NjhcrlwjUpPhCBSVc1YXFhYiCZd9RcCzxMVXnXkyuVyYR3PTf0XN7bZbOT8ZV9EBcVndMxHM/43doFTIC5uJRzYWVIcrNe/Cr2sXAy42UqKg4EiGn7cDcbQPaHGixEhv9UKW+K0kwSgXucqkgOYwyhZaqwsjcuqKuwaVLnJPKsqUpXMvyCexNJ1oKqekE5RJHlTqCc11GkNd1rDPZZwTJLKJ9flk+uyptqsKcoLVmUcXzSVduql5HApOVxMIYU3RZaWlCg+JUr5N9SH40BiTDCF4sZoEyAZAxXV9ZanalDIyqOnoNjDcQA0kCmrZNaqUsdPBmS1cCDyxIUcGCBYLHTAx/GeOlGbwvR7KeoXY8CuSMPuumH760bsrBe5tv+DB5NNcPIcnMyBQg+4JChwg42AVXDLPCOLjCyzMseCjYd8Di6NG/9mfML/RJHhBRb1PuxWv//++127dm3fvn2XLl1atmy5Zs0a31QCyeVyDRo0qEWLFkOHDg0JCXnxxRdxWhQAHDhwICYmZvXq1Xa7XZ0d0LhxYwA4ceLEfffd16pVqzZt2nTo0KFTp04xMTEtWrTIzs4+dOhQTExMXFxcy5YtO3ToEBMT06NHj7S0NOzIS5KUnZ39wAMPNG3atFevXg0aNHjllVfQtgAAU6dOfeihh8pFni4qKuratevOnTvRzUAF64wZM5o2bXq58WbNmjVu3LhJkyb33nvvxo0bAeDxxx7HtDGdOnW68847O3XqhPMCQAaRUYaTyAw4ABY++t+4D8d9TEt8MWNzim6XQHt4muZoli1TOJ6pWNw8FPGwbR/ow38IMeSEG05Ehixz2EDR6Ek2dSx+ql7HH40bSNVSpEIyIZ07NdyeFmlPi3RbosTk2tKC+nxyQza5IZtSnzXVVvioaKymUDG5triwIRZpQUNpQUNxYX1xYX0vhVPqskphTHVJMUeScX8lE7XHGuxJDfVYIhkzKYoya5TNBkhRTsakR7dWYt79IxVV3aCmjVaRh8Onqwp0qa6qM6787RQ4WBYnfjOyTGBH3llvKTchHGdfCSDTolzsgIlJfO2wjbVD9tULP1jLuKZZwxWPP7p79jzXvoNwqZi04BRJYRVMF7o4WpRZJZCAADwnk1hZilpsE+XihMTRCQkJkgg8782OR9P0lClTunbtunr1agAy73P79u0tWrT4+eef0YjZpk2bl156iWEYh8Phcrlee+211q1b5+Tk8DyfnZ2t0+latWqFUVMxZlWTJk1UQycA7N69u2nTpuprIwpiZmZm165dMTgAWlRnzpwZExOD6uq2bdv0en1ycjIqvyzLPvLIIz169EDVeMyYMYMGDULDrvoJAE2bNj106BAOZKlUnTp16n333acaDfAcMK5Kjx49xo8fr3iwupVpYMf7939wztxZAsconmhegwaAPD7hg6RJ78tQzECOBMVk8r465R8nQOGnOiFVWwFwAew6BrXqboqOzK0Teb5erTU0o0ytw4kAfl1VfTKuU+WGUNXbbfd1yUPF5LqelDuKTHG5pn9eMPXPTXnQOb87M/8exnSXM6WVfeF9xcldisz3FJtj3abmnoVtbPMftM172L6wi3NhZ/uC7vYF3Z0LOzsXxhWn3FeU3N22oJdtQe/iBb2Lk7sXp8QVWzrkpsblWtsXpDUvSr2jyNS5OLmLLSXOltLeltLendJKNjWE5HBINkpeql4FUmtOzKoyzwNSVZArUtXNCpxM3PJZSeZFZXqr0g8UJPQNL43Zge+pKAMjyE4XzJ1ZWMswvXm9Vf/qe2iJFXb/AgXFpL9Z6CLKrFMEO0cicdAg2BkPLYrKVElJBFYEHifRCsTz0iNKroTEsQnxEyQBaA8ZZMekfm3atFm2bJksy4WFhYiq+fPnT5o0KT8/f9asWQMGDEDeIbMuB/1744033nzzTVmWd+7c2bJly0cffXTo0KGqQaBDhw7Yv87Pz5dleceOHS1btsRuO9o3jxw50qBBA3S6Up1Y27Ztm52dXVJS8uSTTyLv1G47AMTExCxdutRms40fPz4uLg4NrypVOY7r2bPnqVOn0NSrUnXKlCndu3enaVodm1Kn/3fu3DkxMZGm3S63Q5nyzyYlJfTr1xcA3E4lWaGIU1LZ+HFvT5j8LhCl8xxAEQleg0EXtVNWeYlMvapQZAncAL8eg8jaa8OMv0eHnI0O+8rlIm4GfgtAmbfm+v3z56l6VfFVvQ5MxCTKmyKFxfd8/pT+rRa6Uc3bPFqv81MN7vlvTP2p91LFqf8ssPb+YkTXd9rXe7d76InFI5yLHi1c8O9Xmt713w7dzlrfOmV+9ucJLz3XgDr66bCsTx89+dmY9+6Peblh3aS2977WuOWcfvcfnf38MfP/PdKw3v96dj2W/Hxu2n/M/7r/vRYNZ3Vr+OtHQ56LpnZ80JNP7gJzG0ByqOL3SlxfVT20OpWaqKti9GIJRBYMYV+gZ5U+5Otjx0j0KZ4negoJai2IosiJonfOorcnCDzIpJDBFmVSOS8Aw8FXXx/aluk4eRyKi8hMf0Ygvv2cGqVamZyuhLX2RnNVDHPeGCDYu8T2RZFLSPg4IT5JEr08tdlshw4d6tixY05Ojt1uRzMlaproin///fdPnjxZ9alCw+j27dujo6ORqg0bNpRluVWrVrNnz8ZXIyYmRh2JAoBffvklNjYWh4+Qobm5ue3atcPxelQkU1JS2rRpg4PvsbGxO3bs4DgOTRPY5qhRo55//vnLNtx33nmnf//+KjexIsty06ZN9+/fj+2r386ZM6dfv37qPAJiNxC5CxdzlDgD/aZ9OkWWRbQvX7h4tmvXe2fOmkbTTpZxyRwtczSJWityY0e/P3FSApDEcR4A5UdKlOTyRfD2UZTbhzcR7yMPcOgY1K293hh0PCrkdFTYF04ncCT6LqcW/G312QGIqK4fZP56y7eNXfWqqGqmVGd71hx+alr01vfusjz+r/ier3bTDfvP3W8vHPrs6pe6nUvpdSZl6H/uuPOxZt2f7dLzx+SJhz99/tD4dx6r+1TvsCc+GTz07JeWjDfi/6lrkJn0ZubkN59u3+6xmA4Zz762/KnXJvV8cmhY3bTnHtg3f1q/RsNH/SNp36zF8x8eNKpR5wUDRmRPGrf5nRGPRYX98P5wduEAmNMMksPV2QTVgam6zU1DVeOaY78BywAxrCovqEJVRpQ8srcwRAmSWW+RRAzPwQtkUr9biayKgeFIkE5F4SVBU33jGhqMlrMlCD6qEhxcHv5OUBbUK3FUateuXZcVNyQpunAi6XCb9u3bx8fHq5OdkKqZmZnt27e/bJ08dOhQt27dWJZdsXxFTEzML7/8QtM0fqX69pejqsfjyczMpCgqLi6uQ4cOcXFx0dHRffr02bRpE2qgbdq0OXDgAHb/VcqPGTPmySefzM3NtVqtQ4cOxewDKj0BoH379tnZ2QUFBerKy6P8Y8aMoShqyJAhbZSlTp06nTp1VGQFnTvHtbijSZs2rTrc065t2zaxd7V86+3XHc7iCxdxOE5gPG6BoQWa/eC/712WGbEbsAwveqPh4I+E79ObOwBj6fji++GNIC5Ux49D/dqb9QFHFaqu8FP1r5P9Klq4QbqqlqoWfe5CfdHSf5xKfnXd/xL7RT4y68npR+eOuWB9/PiCrsfMIx5rFJcwdNbA2NfGPTb64IzRx2d9+lTzjwY2mjy89Qs/zVy/YvT6ByL6fj9x2g+fJA1qcl/Cw88emfPmsVnDz6eP/XxUv8xxjx8xpw66I2Fgs9TkYRufjXzstbt6ZE74IP+Liev/9/ijtQ0/vD+cSxlIqJoSIZt13qQG1Taq1lALQKW6qkJVEi9V8W0XBdRVkaqEp1iUUUlFXZVIwH/iTId5WoiOBCTYB81zPDEUYNE8W2pE5PJU9epQSnOXQZmoLKgN4fj+kSNHWrVqhYH01QYZhuE4Lj8/f8CAAUlJSThyhUjlef706dNNmzb1eDxHjx6NjY1F5/933nln2LBhDocDY6pWRVUAuHDhQlxc3JEjR5YtW/bVV1917tx52bJlOKbPcVynTp3UaayYb0oUxHnz5g0dOvTyIE98fHzr1q3L6aSSJNWrV2/v3r3l1k+cOHHYsGF4aWfOnFFILdK0WxS5tm3bzJ4z/dCh/fsP/DrihWcf/ld/Jbg3C8A5XUUsRzKeKfHDYezYsSgBjiMhFitbqknVY35dVX3AblzlxlOVtwQXLKSKl7Q+lfzIDx+/ez/VZcGzk8+kvHVq/oPHUx63vvDg8DuGrok/8lCLCY/cMerQ3BmnTKb+9d5+vtPip1u9/XKn/33x0dF/BA9b+tZk00tvdaRiN09Kta1MOjT9X3smv/T96JfWvPb04QVrHmllakMteLJ28jORry4eNe7E0pk/TXt26ydPPlInyE9VRVetgqqK0oVdek4QaZZ3eRg3zXICSdxSlqqos6phP8tWEM8VqKqOqjscjubNm2/YsAHRicbWDz74YNSoUQDwyiuvDB48GHNAqVR9/fXXX3zxRRyJ6tq1a15eHsdxLpfrcsDA5ORkpJ6aFQp1VRy1x3dp3759zZs3R397SZIWL14cFxe3a9cuxFavXr3mzZuHHqOq42qPHj3mzJlTVFQ0e/bs+++/Hx1LVbUUAFq3bn3o0KFyOuz06dPRIQGPSyIGuIjN1OGwDX10yJSpnyjaJekDDHy436OP/0vZTLY7SAxsLVVRV8Ur+iOqYg4V/G0jHRNRhKNHoW6tTcHUsSjj75FhX9hdfgvAjYMqyVrRs2dP7PvgzauuZ9WftQAQt6eMWsWpd+SYB/ww9j8P6rsl9X7r2MyXTs99/PDc+Bead0vqNfmHhPMf9P7qoTr/+eb90T9Nndq33jOfPLtm+nPz7tf3HTvg6wfD317xdnLKvz/oZvjHF6MtB2Z+MrVnxxcbxA2P7P5Oy39lzz3St6GlfdC8d+LS/9No5Fv3PJG1cN4Ry9ubEh8ZHE1t/u/TzIKHpFlN/LqqLCk5BDRWOeIlTsLOi5gCixN4XhSxkM68UnxvOOpKWraqtoEyFTUSIDJOHe158803Bw4ciK6dsiyfOHGiVq1aGzdupGn67NmzvXv3/vzzzxGpLpcrMzNTp9Ohw8CmTZtat26NY1mXE6Nu2rQpNjYWswTidACaprdv396wYUMkIL5Mp06dwvErnudtyvL+++93794dv920aVPbtm3379+PyVALCwvfe++9yzGqMc3Uhx9+2K1bN7vd7nA4nE6nqhF36dIFnRbUibCSJCUlJT311FPo7qoZs5Lt9pIhQwYlJsbjEUWR2/z9+nbt71q/fq3LbZOBLyrOu3qqauWv/rAR2+yRI1AncmMQ9VtkyLnIsJVeqv5R3uwbCJ6rO5TfrqqJBKjtWftm3JMpAGlRdnPzi+Z/Zo57fFB4xyn9Xjkze+SF+f/e/OHHAwz3/afusBfrvfh0/VH3Up0+GfDIQcvix1r/+5NnzN9OTBvb7/X+EW89EDxy48eWr8ck9m3S7Z3+I4+nLT9rXbX/063/bvLc840Gbk76sXeDyQNbzN4wbuOS5yc+FNBh7pBRx5MTt8YP/1d4wPq3hrnnPsh92gBSIsCkkzGtofY8/6h+c9lVr2gB0FKVWFcx/woZxFdCC2IkbPUTs2NdK6pKkjRkyJDGjRsPHjw4Li6uVatW77zzDqYplSRpy5YtQ4cO7d27d48ePXr37h0TE5Oeno69/ry8vI4dO6oj7CzLjhgxonfv3hi1GnOuZGVlPfDAA2osK5fLtWPHjtatW2sHo86dOxcbG4vjXTRNr1i+olOnTr169Wrfvv3lwat+/fqtW7cOLb/jx49v165dr169Bg4c2LFjxz59+uzbt4+m6fDw8B49evRTlvvvv/+NN97Iz8+fPn16q1atOnfuPGjQoH79+g0ePPihh/qNGfMhL7Dde3QbM+ZDUSTqZH5+LoD8/gfvxN7VMr/gosttQ9srwmb8+PGTNclcfTLX/q34q1ZKVZ6Hw4ch6ioGKwAAIABJREFUOmxjEHU8guiqhKq8KKo/aarfgrbFq+Pcjd3aT9U/pqpkjXKbmuZZOm//uO+wes3mDH4mf/6rhabXP+r+wL/v6L7r7aSt//6/7AnTpz80aGTrNpsmJj8WM3zcoDFbPx2zdUpC76ABgyMe3/FJ0q/JH/ZrG3Nv0xbzXnp32ZuTTSPnPNK03386/fP72Ut6NXr6hXtfyTJNPpc6ZXznF1+uM3jV8Ncy33tzSJhx49tPeub146c3LKWqJUi2BMiWAHU86sqVGk5VY/iXQSGnA/WnDaHfHD8OAu8drSLdcbJwksxU1FJxwAoDGineUSyCFUmKn5jJtex7qNWVyqiovjEtkmVFiVlF7KRq91n1iDp69OiCBQtWrVqFyZ1UgwDDMPn5+Zs2bZoxY0ZmZqbaly8qKrLb7UeOHEFTqTp/f+fOnaIg4mRQVGO3bt2KwaKcTieuOX36NE7GV0MF7tmz59SpU+rwtyiIe/funT59+m+//YZngmNoAJCZmblz5861a9dmZWXt3bsXhfDzzz8fP348KyvrxIkT2dnZ+/btY1k2Nzd3z549O3fuPHTo0J49e5T1exRrqbRv3x6adjOMRxGFIIoMgLT7VzKPwOW2FRXn+YQG48aNq55dVSv/UqqirhoZtiGQOhFmPBce9qXDjZ5V2jtA6mXv5o0l5dUczU/VP6CqZAqWLeGMqa7N3HJvfKtRTaiMYXHOlMdc5qfeijWMbt8wf+pLYH7t4rRh61/+x//FBKQ9N+Tl2LjUEU+dTR95dO5zo+/p+mZMh90fDzm3+IWfrK++PbD1qHaNh9WOGBgRnti/p3VUn+OfjR/SuMHH/Trvm9b7QvITu979YFzzLtM7xG5/7dEXoqmdo/8ppHQlnlUpYd7RKj9VvUYAb9wNlaokt6CSvfX6UdXlciFh0b6JgftkWVYnjOKrp0aAVidT2Ww2tB7g8Jcaj1Wdq4qsROVUPYT2RUbf1fz8fNVHFY0DGNlaDRLIsqzNZlO3Qb7TNO3xeBiGZD/FbAUYTwBTpBQWFmJsFzxDNJgqvXtS5Xgyx4xMmeXcHO9RXNTg3LnTCm3R1x/i4+P/OlUjQtcHUadDDWfDQ1c53MQ/q+Lip6r2kbhm9etuV/V1/FXPKskUCBa9aDKy5nCPub4zJdaZ0oYzt2DMMfaU9s6Fcez8tvz8NsyCNu6F7e0LO9sWditJ7luS8k+7uYMzpaN9YV/7wr6u5M52c4dCc5cC8z9LknvbF/YtWdivJLmvPbl7SUr3ooW9ixf+05nc1rOgvXtuL8+c/szc7p75nd0L23tS7pBN9SElDEwG2azDOK1XVk7LfVsTdVUcHVJmAVSlqypjUGR+E3bz0YSqvOqV6Jiqa5TPn5H0N/ENLPvkVbKvtieL9vpyumpl7ZS2qmqOpauuc01VnK/zcbB5IjGtVH36KUrSG4IWc7fgiV1RIJXK3ztaFW5cHxx41qg/h1Qlnh0VFj9Vr8tNv75UrQypkimQWDNLvyqNlqKECAiVUkJ9M/0jxRRSBHMtbzFFC95SRzDVkVLqkZLcQEpuICfXU4u0sHZpSY6SvCUSY1ZBSjCkBMtm3e1JVZIaFdPAKZkBy73V+JApLxuSVPtJVpd9Cit9q9HJ1bthRQvAlalatv1b77+qJFaGqomJiZMmTfqTVJW9VA0xfqcLOq/XnQ0NI7oqmbJRYfFT9bo8YTWEqr5YJ97p+WQuqaYIFkOlRTKHKCVMMofJphC1eKfGkrh/2uKNTQWmQPAx/dbTVdVIgMawtSdOkBeM58mTQ/yiSPoiXpm7L5SFaRkOqs9ZBYaq36iVqhihbkCUL1VXvb15ijKpSmJeqiL3/iJVJQmO/QZGwzqd7oJOlxMa9rXTQ6iqZSgeSLum9J7VvJrfrqqxq/rgpdFM1QDSaqVMnEDvlmaSCoUUJeC/YA1QCiVYyxQJvbuUXC844lSdcSdM64IHunWoKpIp4YImvmrVVOUrILVyqlbj5aqKEaW7+qlaKgtSq0piZaialJT0V3RVpKpe951en4tURV1Vy1A/Vcvel2v639+iq14Jsj7HJm20f8lKlStCGiWk+VamUlIqJWuKZKEqL77GialUS3zt+j+qX9GuapeBJs+upEwvkiTyL7gVI2a5vvM1vYuSMvNJAIWqX2HU6mpQ9ZqeQxWNaalaxSb+1aUSQNhVm6qlO5bWZJJ17thvoNN/F6zPNYTkGsO+Jj4AJKZq6eKnaqnErnmtIlWVfh/55fyD+KrVmQWgJdeV61qWKUz0UlVJBFAOqZKVIPXmoSqNQz3X/N6VNlieqmeD9Gf9VC2Vz81Tu+ZUNYbmG8O+JrMARLaUqbLsp+p1fCiuQNU/yLByraiq5am5VMesUldVNFM0BaAFQLAGeE0B6ilp21T1Vu3Kv1C/el31T1DV2x8kUTW9Oq5vTaXPwp+haqUNXfuVfl31qmSKsEtMTJw4cWI1Rqsqa9unqwYZvgsy5OrD8o0Ra/xUrUxS121dVVSVlLxVvC9vVSWZq1WEpVbtP39l/RS/LQc4HwTLUFUhqeT9JAxFSyvmzRZSg4TUIG8ObcynXa7Na/rv9acqRi1RbJ1lqCooY/ckDYpSyFC+105HqErml/ssANXRVa/bI1UhQ7U6WnUdD3mrNI1UjY+PnzBhAlIVP6/i+qqkqvfXHTVWv656FSK92k2vQFWGGAEEED0HNywZ1ZE6k/yAx9KoFF7XiqqVsrUcB7XHSg1QzwF5WpGq3pEub57qysOnaqldnbrqtXpFqjqJN6hEMtSQqHoiKM6hV6urVk5VbEqCYhlylFKisJUmSTnKUHVNcKhC1dB1VfgAIIuv9kmp1vYV+5iiIM6YMWPcuHHa2aLVauu23AgFiHOrcEbDn6GqDMeOQZDhW6Krhuf6dFU/VW/UI1UVVUWQGKKueqk6Mq7GUBW1UeWzulStLIFKdUiq3aYmUFUiOffyJTillEJJ9qBLfwWq5gTpc4x/H1VRD8JZ55ezNI8dO/b//u//1Jn7N+rRvvmOo04hHTNmTGJiIlJVO62rWpckk8fBS1XjRULVyK8UC4CfqtWS3zXYqFKq4gi2B6kqebI2LrnuVL2yrUBDUlVRlSyk4y+kBvFWb0WFbHldtRxVtaNhiueWlp5V1W8UVdF+6rOiaiwAMrACeHiSyTRPgDxJ9pCXUNGLibtOqQVgTXBoDaIqAEyePHn06NHX4GG91ZvABNeXM3F99NFH2kiA1blu7XOjUjXQcEEffpFQ1Q2cSOK3ymQ6HSk+C0BVs+aqc8wbt81N76+q+gXdRFQtB9brS1ULxVuDWKuOTjN4rLU8GbHpI4I/fPoe4PMBrokFoMzDKonef2VZVCKeeAQghYTlU4JMk3y4oo+qHgiNqFlUZRhmypQpH374oRqppMzl+f/RSOCaU5XSnVeoutJPVY2Yq6xqf5mq3KjCF9q9vNpQpboqJu28jhaAUndR73ynMt6jFfRWmQRAKVNQY1V11ZpEVZ7oj6JqV/XNuydh3r0yr3BfqlpBtud4Br/mRZnlBUFxCqBZUQnnIfGsk2Q/8emqHA2h4WuDQ3MCDTmGsIp2VREjp1z9mVR1hpWvJwqRL5QnwzCTJ0+eNGmSdqUaiU5rK1B3uW0rGFZGFMRx48ZNmjQJg3lXLuIKa/HZwp9XUYKjv0FkdCYVlFMVVTHYCtFcpUojPFQ4wN+64sboqijDP/OW+t4o775/K1VxVpU6yarKSjmkkjACGrsqby01AvCWQCE1qBJdVWsE+IsWgCp11UKQFYf/v05VnzeVDCzLOQFIghOnU6IZcLugqIB8Xsp12u12hi4ReAdxMVYsABwNxoi1gaEXAg0XDGHrK4xWqVTFGavX60Uh3R1JQjhePkZiYuIHH3xQUlKCDPX1PUtHtrTrb+c63o/LKQkSEhKmTp2KsROrYVcl7zK+z+WpGnBesauW6qoiyAIWImjBlwiSgPV6PQ3Xot3bnapol/RaIU3a2agaaCq6qmgOFs1ldNWKa1CHrQ5Vka0+qpKWfa352F3Wr6Aq+2lV68mZmCkwkfm4VVgArhlV0Vqq+FHRvOiUgfcwwqULMu2AnNMwKXF//wfGPzNsbGE+I/Is0VVrGFUxVBUqpBzHTZw48Yknnpg2bRq6WOHneM2iXX8710ePHp2QkDBmzJghQ4YkJSU5HA41gGylaFJ+l0SMlaOMhXhNQairRkRto/xUrVRwVazEXyavvlnFNhVXa/fy7luVriopPgBX61klWiielECSRsWsF5N14oJgMVmnRkvhzXreoiSLNgWq4GMteqc11GkNZyxG1mJkLKFua6gtPdyWHu60krorPcyZHmZfFKGUMHtGiH1RmDM9Qi2u9DA6zcBaDc5UgyctxG01elJJU6zFyJuNrEXPpOqZ1GDeQgILcCkUmxroTgu2pwYzqXrWomdTAxkr5bGSlR5rsMeqd6YZ7elGe1qoM83IpBtpUzCrnDbGEBBSK7WrXlOqElLykkRy2os82Irh1HH497Nf/KPDzCbRo98aufG7Nb+DCCIJnaL04BQjQFld9QoWgOurqyJVUesEgJ07d06bNm3MmDEakI6foFm062/n+pQpU5KSksaMGaPG6r6yW5WPqqwSUFwJRKbkx6VZOJQNYbV+pQIu6sMKjWE/FNrATZP45RwPnEASPgqKUd6vq2opWZGPyhrvkHGFepUxHWDr1h/K5a1S+gLSH88CUPrgqEXCkjBYbGSSKdZMwfJweVm0IzXCY4ni54eIc3XCPAOfHEKnGF3JIc6UEKdJx5kDYHEoWA32mRR8XrskLezk4sbL36Hcyxqc/ZSC9R22TqDMb1Pp71Gbx1PnlzU99ln9L8ZRM0ZSc16nNs6jDn1ZP2fd3V/+j1ryKrV4FLVlHOVe1dqeFmlPC89Pq7N1DPVTElW4uFaRKQS+aCova3RxLsWubuhaUYvPCBMsBldKoHNJ5IrXqJPpkfKadvkLIi7MppgV4TnpQReXhju/bHBpUfQXb1Bff0hZX6XOLGlkW9ooP9lgSzPQlgBC1RTys8GkBlcYraomVau4dz7neUkSZKDJEL/skURw2WBywqo+XcfHNPhvr3/Mf/PlnQ/+M6M4F1wlwDEgiwKQuQCKb6wANA2G8DUBIecp/Xl96LckF4DymoE3qbwgACMAo8QluBHWtBrer9S+UTdZnYS3lkESleQOHkGCLT+cmjHlwLj/Xpo2HsaMhbEJYAz9naIKjUaPMfT3d/4L/30fxidB/NjiSYmnNn3rEVhi+ifPj8wqVsEaLYAbbwHQvKV/C1XNOtdMCjKiYFE0Y45k0hqemWqEVXHCstb0gjApJZRODi+Ya3BmNCxe0jj/s6ZFS+vnL6AYSwCkh4jpIQ5r0PZEauUkatpI6ndTKLOq2Y4ZIanvUxsyGm5Z3nT2q9SvGU1XzQpeOI7aZG6wzlJ3RiK1e3ObjInU5xOog4tb7VrQcNXHgac/u7MovW5xWu1zi+qv/5ha+RF1Ylkd55qWh6ZRx+foCr9odMASdOaziFPzqHyTvmRx1AlzyJeJ1O6MOsetjY/OiqS/viNvWVR2auipzxuf/7xF7qo2P86P3GFtkPw2dWhx0/ylzXNN4SVpBneqQtVkEk/rhlCVEXmwF8LAB8aEUE+M/+hk7ln4diW0uWP6ueNQUgi0CySBZNYkdkzFYEbToItYQ4VWTVUS3p/zRU0mus51fZmud/vX9eRrdOM+qsoSI8keToJff2XbxHxSJ3h5k4iDRuP+kMgzBmMhRRUbDRxFnalbPz9I90uIPjPS+MU9rdMzNxG9lbiXyDwA56cq3msNSbV66A2nqjJqZIDUOpfG611z7tr1qvHjGCrtISrzzeAj48Od5mhxad3i9Kj90wJWf0StGEctjiefvy2kCs0UYw6SPou8lBG4fiK1bDI1eSTlWtviXFrE54mUKZ7a+U3M3vWtl0+lzInUlDFU6mTqwrcdTq9um/A+tX5tbNIr1IaZhjPL7zyyOGbSy9T3C+pfXNS0OK3uuUV11yVQW1KC93zeYPk4asNUamdyyIYZ1KKPqSXx1OcfUj9Op06tbPz1ROo7k2HzotrL4qnvxgfMfpLKnBi4a2HtBS9TyS9SOau65H7/4Lqp4Rn/pQ6lRl9aVKfEGuGwGmhFUQWFqpV5Vl0rXVWSlDSnZLSHB48DVi0/0Lvb6AZRL7dpMfONkWce6rXh0u9QlAsuOwgcI0ueGkvVGg2mm/rkCFVFJf+YQlXx/9k7D/ioquyP35RJr4RepYOAIKgoRQULYF93dV11LSuWv1iwUaVIERBQOukkoRfpIBhC770mIWVSJzOZ3l4v97/n3cnLpAIqyO5mPpfhzps3My+vfN+5557zO5hj8aMPrQhCa1qE5QcFZAaHl2oCzb6+Dh/k9PWz+Pjl+PpeCtVc9kGrHrw/xWHFnIglmcGYxhjKZ93lO+O/xFaFmB64mQlYoK7sTvvgPlS4tGrGqjoRHx9snBOAtw85/VH0FzEoe2r3zOndx3RBZyaE2xIbs+ubla2MSZ+BNkxDKTMDYmeHpXzve2YJKliMbAuRO15j/jns3KrAA6tbLxiNtCnhJatiVkxCy6f7/bq2yb41MUnTUfLcgHFfo03xEUVrO1xPbTtnEkpOjvnhK3RgWcS1hKb567tO+gAdWdejOOUec1LTopRG26egdTPQqu/Rmllo7/KQ46uaTXkbHVrVZP/KxjM+RBvmomu/dF86AR3Y2Hp7cvR3H6KUb1H2xh6pX6BNU9CZ5LYpn6PYD1Dcp2jLVLThK3RtmUaXEOxKCXPHa9hlMPzHyxAX53MbqapEZYk8FgXM87LDJtksmKFw9lX8yfsnnn96ty/69LWXt61JzaKdmHFDBSRP4KriAbixrXoHPQB3+bX6H7x5HqrCPVWSGU7EJiMe/3VOk4DdMZrrvijTL6BUE2D19XUEBrDNmmGEtBERpTFhhU3Cfx03JtNkwixc2w6M3VBbF8L+7urHnaGqWk+xqqj7DWxV70+Rfk2/KuRakOirGygBVsQ28QnBtgVhph9b//qW7+rnkfjz09bUR1JfQ4kvo5x5Gue6xtqUyEM/+W37MWjz8qZbVnbZv67D+ThErQ+RVoTq5qLS1f7ZW2My9/Wb/h7KXxGqW9s0+Vu0dKrP2T1dDmxomjgNLZqCxn6FtiQ10q5qd2phxMzxKDEhevZotG9RSFZqq9xN3caMRHtXdipc2d6Y0kyb2mj7d2jhh2jBJ+jk2vbnf+6aOhUlTEBXt/U4vanTT9+i5XPQ4V3dpn2Jjm3utCU2bM5YdPTn9sdXtlvwATqT2ihvS/tNU9DOWYEXU5pcSQ4rSg2zr4nSx/m6U4L4eF9uEcJxSLxtVK08ryXwmXKcAEuUMbrFDJeNyYLLDHjhopJ331n/8osTXTYsuEFUpYGqlbvuf6QHZ4WEMQ1UlThOxIZyvHc3bh25PQidDdaU+Gss/hqHn59bo6H9/JwaP3OAf6kvuhAV8nP6PmynMSuJvOyAgY7E3Halyt99UP7jqLp/8KDHyKStZ0qxFqqmfHAfKl46mIpv5p0wSnJG+YRgeWWr3KmR2171WTYE5S/scX1htyUvogXPItvKVo61MdnL/TNmocSv0NxP0dh30TevoLM/IvsKX1kxAEuSUPaasMs7e055E1k2tciLDU4dhxaOQRfSe57Z1WnVTLRwLPphElq9MMCc/mDOxq4TP0c7t3SaPBJtn6/J29z1wtqO4z5EGxZFaVe30a1skrOqyZZpaM23aPei6AVj0P417ed/g1bPDTy1utOxNV1mT0QL52p+XtNm8TR0elOnHYtD5o5FRza3P7a2w9x30ZXV0fmbWmyYiHbP9M1JiyxKDTIl+dOrg8rjEZ3iL8Uh4SeE4xG7pK7IKpJbdcMsgDq8N15nHu322A407eZ50emUBAHrjfhqNt61l7l6De/ZI108x0EcjTL171FyqbRVi1BgUe2zVTJ3J2ervP6mhu4fugcIVWUW/KqSwElYkHFxMR7yyKlQ3+NBGp2/v8vfn/L3p/z83EpzBviXBftdGDL4ckkZtrgxLfG8REkiJUscTJAqjz90E//IL/tTqer5Q8h1S154X8PVbFVwpuzPOOhFVSUpGOaUYU0Ooi84LLiu/AJULVxWO1XZxEBpVTP9j21WDvOf0gWVJQwrS3t8ymC05WNUntTEnBxsSAorTY0sXN1Eu6Fl/s9tSze10P6E3MuQkKCRVoRa4lBpanj2jvumvYny40LYn9semRu0/HN0aH2H/WvbLB6Fzqa1XT/PN2k6OrKq/d4Vzed8i47t7pw4Fa2chs5t7J6e2CJhKjqxurV2TZPCNTFZ65pvmI6SJ6D9K9vPHIN+XtNmQ1rL775CJzb1vLT7kVnj0eIfguPmhWxf3uTamk77fwxa+DU6/nO7M2u7zXoNFa5rXLS28cZvUMY037KV0a41Ia54xKf5mRMQk6JEqv6EcIIfu6x+qtamWYV5dQRAxgG1PVc5C92M081aldUwy2I3g2fN3hUa8WJ04/caxXzWuuWn77y50KjDohs7TVxVW3UzCmmgapWd+Z//wvsq9urLLIzfMS9gmZGwxYG//sqI0Bagqh/n58/4aShff6evn9vXj9X4l0VEHB83jrK64fKmBShhBjmyIqRZNVCVuJk5hX2VbmYltE1SVY4987zK9Qy7TCmxCHOyHi+B50zL2Hdo4MDBFbaqJ6IY4nAUqvIeqiaP7FMLVYmyCZsYaF4WgLcNXjYQfdwITboPfdgOTR+MDCt6M6tau5JDbYnBhuV+uji/0sTA0hUhxhUwmc4uQ67FiFrqw8T52VMjynf2WPRPZEqNvj4LMdu77fgWzf8AzXsfbZ+Arq9ocnyJZvUE9OOH6KeP0c6F6Ny6mIJtnVd/DaFXy0ehzZNRyaZ2ZSsjy1aFF6xqvH0q+nVBwIm1rdN+RFNGo6O7uy+bjhaPQdPfR/PGoPhZmkXj0Lm1nfJX3nNyjn/yZ+jqutbZqzvMewkZ18bo08K2f46OTUGOtAi8PoKOQ+IKZItHbDJQVV6AcJwPtxzm2Wrzq9atA3ArVBVkgZcoZRrBzYo2QZIoBtMMfvDhUbHxxen78IEDeM8urL2OWRdQ12VhvakaGLbZJ6QABRYEhGyrJbLqJmzV+mMk//MJ9Z/4F3iR1Ht2GpJN4ZoVMQ/uAB4fPIBjojcEBeb7+wFS/TSuCqrSmoC8Jk22njwJPDU5BYYHGDdQtfJs4LENY8bNuJU9KlMMJ0iYF2U348ZYtjkdAlRMggx0RdlIsWUELPJKhBqPRQZDSo5C4P3pRwYOVD0AhKosxhzx7PGYwZLj0h6gqnb5QOIBUKWhSDoTnRRIJ0VRyR2Tn0KxQ5AjuYMtpbVlxb2OhK5cQiMhPpBPCCRx+O54DbQEPzoWsbGIi/XjYv3YeH96RZA1JdSSGu5cEexKhgh/S2qoYWW4YWW4JTVUeSvUlBZqSg2HlhZqSgu2pqhJAZALQLIA6KRAd2KQNSVYtzpUuy48Z3105saYc2nRh+NCTq5odH1r5yWfoh0/oEsrmxesa6tLa2VIbWFIbaZPaWxMibCsCHGkBdiT/W0rIP6fStYwiYiJh+KDVCziE5C8HAlLlMSqWLgT1EHVeupW1akDUOOKkZRsfbeAnQJ2Sxjit20uPGbc1pXrbOUWrNNhfSmExNiMcErAZAPRchUwS+HA8E1A1QAvqnKwGtwnZUGol6pqpinLwiQYxvjgwYOHDh06fIuPQ/9jj4yMjDNnzqSnpx84cIDIyJpMpvrTosjurfe5xnnh4ak64pQq6kTAsWV5geWw04x7d18VFHTeV2P1D3D6Bbn9gty+gU6ksWuCTt3XM9FixAwLXwRUheQBDiJeGzwAUIUY027GiTFmOUzRYK46nLQoY5pjBUly0zzHy4IsSDIjSi5RokQFqTwHMGUoz6GEjoQz9h4e8Mijiv3vQSqoIEPchTJf4qFq4nv3V6eqJ0NUUW8yLvKxLI3e/Ara9DdkXu5vXo7My2LsS5txy0OlWH85TiPFQj4VH+tDGkuoGucDVIW8Jl82yY9O9qOTNFSyhkr2826wXGlskh9pqpYKcfJ657OC9zPRx5XiY03zs6QFGleGHpuGfhmHtnyDto5BuyagCwt8SlOijSsaWZIaOxMaU3GNIMY2IYBJhM1gEhGb4Gl8POLiEORixSI+DomxSFgGz3ysDxvvf5uoquRxe1OVxhhri11WB05bo41u8nqffjMGDY7t3u2bTz+OxRg7zXA4ZVGSRQkLmKUJVfNRYH6lrXrTVHW5XCpPMcZpaWlt2rTp37//o7f4GPw/9hgwYMCIESP69u3bu3fvefPmkcx9pxOu0N/xuDmqgoNVwBjsKo7FMo0nfHndx2cf8tUHhjrDo/jwKDEwxI189chn97fjLtMucCiBaw+oKooiI8ngmVUIoEyM/o4tvn0fvRN+VUHGThoCuGkWvNQ2Fy1j7OYoRpCdtMhJmOYwA1iVeInjJUZ55jiR5USwQSjWRcHoESTr0389WmGrqlSlJcyIgF+GwxSWbRf3Eqo+Us1W9XgAkvz4FRp5VUzR95qiWT7C6kBhtUZIaSQkN5ESQ+VEfxBDgfzU2qga58Mm+EKrIKbKULWjvlUNqdWqqniyvOJ8sNIUBRYNnxBoW+pvjQ3VL9Zo56DiucgZF8knNaKXhPKLQ6WFwdAWBcpL/MWlvsIyX2EZoFNtYixg1LtJSkltNt6/tiyAcowVfX5ZrKixKlRUQ/H2q1Y/97yvHkJVAaRUwVblMO2CnFRcbsYPD/5y9Jjd02ddWrCgePacc2tXn2YorOgAYIhbBKpKClU3+IQoVA3d4vEA3DRVyZaxLEvwmpaW9sEHH1Tf3IbXNfaAw+FgGIaiqEmTJs2ZM4e8/7sdKd7nhWqfkg6kfoBN5PHmAVUx9gxATx7GIUH7/TQGTYD0YktDAAAgAElEQVQ1KMgVFOTSBFj9NIbAoL2XLsBolWcBrBwvK1igBNxAVeWI0SzsT6cDCzx43AQJu1mOFSHD12pV3qKU+xcWWEmuaCIj8rRIMZJbBGhSnOgWqlOVVSot3wJVhQQ/Og65lcx659JA1/JAdwJyJyiex3hPyn/9VOXjgaqVlm8FXtkkUKKq2VT/Q51UjfXBy33wcj8c6yfF+htmIzY+QEqJcC3XSIkROLUxTogUF2rkhRq8QIMX+uKFvvIiX3kRkhZDk5dAE5d5NS+w3kGq0hx2c5h2cpzFAQEAH360cucunJOLM69iygVOAJcDQlVFzqFQVbgxVcEmUXKrVG+7V26VLMs8zxNJFLhEeX7x4sXPP/88xhjECG7lwXo9aI69YfNa/U/v8izL3+pGkBQyjuMmTpw4Y8YMURCdTudNaE3VwHOVBTemqpcKD9x6IYOZx/oS3K7N0YjwMl9UglA+QgW+qCQivKxtmwNWMxYVyQA3JXOC2EDVKvvb6caUG5fk4z7dv8zNBl04uxNv3XasU4cXXnh28tLFGRSNecww2EaLsoPGTgYaI2KnEgLpEp3lTh145EScvu/YgIFDlDkvSbnjMUquBVOPB8A7uMojp5IAnkfwk8b5cPGIS0DwvBwyO1XhVG91PtUVwMf6gA0LaizQiPGrktQboGrf+9e9+6ofAMf5kSbF+7EJyBWPrAnImoTsiRC9L8X644RgYak/H+vHLfPlY/3E5X7yMj95mQ+uaPJS8KKq7Q+yVescXnlfPUpfUmxVoCqLKRfPu1nwgr3xxqpe3ZKfGXLutRdz/zIiY9KYDNoOZ4XIcqBnLdZBVR5yEz1+VaAquFZrzVglY0B1OphhmISEhPfee4/o0Uk39yBf4j2cVDW1PSJ1ij+/2p9c5eQmL6rOqdaywh+xqNpmqC9v9bvJTiNKst9//z35OMdBJvGtfpXX+urmVOt47FYSZKocFvCNioLI87LIYcaNP/2U1fgd0aDcMD9rmJ9Vg3I1fkdGf8G5XDD250VMMRzLM8ooVrVV72oxwDvhAaAofP6M/M4rO5uGfrJ3p8Npx3YrfmroF6M/SZk+efeIJ6Zez5JZhapuDpzTRSVg0haXwkCSFnCZGQYMrATXah1UreZXTYYKKxWzVd4s89bN471sOkIiFanEA6CCtRpVVbBWMz/JD92Qp2Q1lapqR0zy5VYgJg1Rq5FrHaJWIjkR4VgfHAcCrGyCLx3vAy7dBAC6GOdLbGqwRmv8IeqS32Gr1nmBVbtolEKCrABeHMApkak2W/HYsRn3dYkd/vjx558880jfVZPH7sc8lljM0hxc1TWpSmIAbpqqFXEgHjCyLLt+/fqPPvqomi5q/XStRtWaSFXn7JS3PNU+vFBS0SVUVZ8rFlf/vy741rW86udr7HnPfFDVtW78yuUCf9q/bz+TJk368ssv/y2QSub9qlFV3Tk3/kZYo66tq6AqSJoJoshVNlAKh8s+Yz8O8F8f4X89Almg+V8P1Gw4dARTLPhSWR6Qyom0h6oyma36n6dqThaODH7x3b+e6NpiTtZlbDPjxXOKurb9oqQY5+ZIvbp9s3JFsRuiomSrEyfE54z/InPGRNOLz2yfP8dwIAO//JfEv7+WuPsXE03jjPRjgwcNUQ6zt616Y6oSeFVwEzRMxeU+8jIfxe4j1p8fjvXFFcL+KlK9HazEVlXfkqoK/nt+oiI11pvm3n0Vo3K8x0oltqoYj+h4ZI9HpnhUnoxsiUhehvASBP6BWFAspBMQlVTZ2CQfMlvFxMPsPxeHeJib8jTPfeK3+1Vvgaoc2JcUi11uyWWnOSeN7S5ss2GTGRv0uKQQl5XAfZR1w3HjGRZs0D+aquXl5WlpaZ9//rnKglvqEPONUJVXZLXIs2qxKirbsqAMSb2/2UMclaeELbXuPMjaVJryLunCx2ssJ5WavH+F9MnyymcZi0qDkfUNH6RimLIF3lSdPHmy6lFVO/V8mefvreW/G1NVlkVJEpTxh/oMnkC7Ez/84J4IdNoXaX2RNhSdGvBIupOGVGVGomnezYk0J7p5ieIlRmigKtn5VhO+chafTsftor87dohy2vCC6ZZH+y2x2bDDiZ9+NG7ymEsMj412ipfw9KmnY0LGTR/LLpmDQ9GE557ckpqIO7T57q8vJbIUzkg/QrIAlNOTuL3BF15PZJW3behNVQ9PlwbKSwPlZRp52S1T1ZuP3n1vhtbse6+pDv9xnJ8c7yMlImEF4lIRvRKecRzCSyHyFMfC5D7QM7GSqnQyUJVJBNreBVRlWEwxMkfz2OnGCxcf/MvLMx574vPefd/7698Wx8VdJV51jhNotx1qWAFYq85W/T5bVZKkpKSkd999Vy2mVA8aar4FGlowf4ZZmeOhBDrkllQDK6fERAuyIHpBzIMXAKXCLZj4U2a5vdDpCdKWlG+skIoVsaisqnwKlCwVzXsQyYdt8f4JdWsreQpwZ2FwrFK14sc9vksPZytq51W8S7ju7QH47rvveJ6XJOnfk1fVqKqa+eoGVDNmVbQqH7wRVaG0n0JV5fCTnQlDUwioxF9+fjUE/dJKY28ZYA9Ce77+KpuRMSVhRnKzgosT3QpVwQmgzGoLxJ+gbsDd1rkTHgCHC3M0PrEPR/iNvHJR4mi8eJbloR4/2GzYbsPPDF43a2KJm8Ew98TgeXOOPT5gjrEI79+OOzabPW9GgUmHXxq+7YVhSbQbp6enDxw4UNmJ5OT1jC9uJgugEnBVNP8DJM/LCqdqVRF+GETXqGyqVjBVO4R96sub/FQF5ZWfVn6X/BafCD9K1FGJnr/6hYrMNhHbrmXDxHiIUfVuYGsnauqIrKonBqBWc6vK2UvqXwoSFAxnZYaVGZrDLIPHfrPugQdG/f3vPz41YuzwZ6c8M3zu4IGTx361lnZjl4tExiiDOBFKsASGV8QA3DpVvbdGluXk5OR//etfBBneIKirDyyQ4EqHdB0RUMoLmMWucqcOYlQEbHdjkxXb7ZjlSfwsR+wsZQaFzKMQbCmKyhKPRUqkXGTiFWNcVm6QMbZQdrPD4qZh6gDkljiQ7YYsIcxzEBEI8zaYo2TGyrjLZcxSrAt+RUWa0oG7EDRM9jaHKQ5bOGzjZAkUnZX7QY1nidRhBPJKSoO6NrDZNE3rdDqM8b+LTU2ZMoXM7xF/NNmlxCGgbkI9O5BhGFLgSz0WShVF2ekCJzrL0jabheTpUZSTfA8pmsKCN0iisUBj7Bbx1Su4kf+2Rii/ZVBZENpw4AhY8JQsM5KblxhRJA1OG/X4qr94F3buBFXdDGZofPoQbtXo/Zzrsl6Hl88r699rVlkJeAN63TM3dp7TRVVQdW56/wc+c1nxif24RdQ33089ZyjEzw9Z+8zjS8FWzUgnqtXkrlthscIZxUGIgSdjdWTvWnKr6qBqRUWTirG/N5JI/05QtSoKa27DzSwh21ltzTtBVVliJRFSOBhsNOBhQ7/btonOycRFWhAGlHm8LtUx4ompDjumWYC1x9xQqKqJ2IBCveJVb8Wv6n05/U6qQmICD0IFsoI+FmOTHevL4a5Pu2B+leUhhQymoUUPTwmhyEyaIhjDi7QFY5Gx0fBFShnZIgMrYIg4E2QMOnbEBhDBk8Bgmaq4c/FmLDsAuA6X28m6CUNVqEHBpkqqYk6WOAgiNClgVXLqa6WqLAhQNtwG20nAClQFoJPpfkmSDh8+3K9fv4sXLxKketuqaiGvemx/hoHKj96BrjRNZ2ZmHj9+lORMEnEpjgc9FNUPrlKVBqpCWp6VE40W3K/L/hYBF1uFXL2v8768IkxhzMgcK4N9qrpiyT4hdPY++ndb/05QlRWx243PHse9u4/KynSzLD59BPfpOmHjav3Sn650azMh6zymKLhxMwyeP3fX0098qS/G6dtxt3Zfzvv+uLUM/3V48ktPL+CAqhkeqqqeLGXE9adTtRrLVNPSm8g117kDS+4AVSEYToS5RIrG5Qb8zusJfxm2bfYEMXYujp2Hx39a8nDv+f96MxnKAlLYRTtvN1Vv8hqD8axqqwqcKMiMgF0sdtG4uASXFEGWrTYbG0qx2wnjbVamyF8KjIPgBGheVGUxdjFOA9holMDyMHF38SreskNKP+QAbBFdUPAAyAyW3Qq+aQYf3Ynzj+PS87gsG/YhDxOzlTVfSY1CXhSVJvOk6qwkstgGTdnz8BYEeldtsovHOh6XKGxliKkLeMVQ+hCgL4DRmpWVNXDgwIMHD9psNjW4yhupan3ZmharilSGYUjI8Pjx49u0aYMQ6tu3z9SpkzOzrooiR1FOjgR2KAeGeAoELHNKYzB2iRLN4m9GmZsF72wSuH3s5zazCzsFngV5T9jJ6vY0ULXy3BaULMbzZ/hBj3yYsf9yiY5jKfztmF2D+3896KGvRr4NDlOahROXYfH8+RsHD37NYcdHD7ruaflSUuwRicXvvRH39j/m8wzO2HfA41dVqQo3fPAG3Iy6isdcreIB+GNs1Zp89OZprVZkzY/cjiW3n6oKcQhVGXCUMy78r9cODLpva4+2qx57YNvDvZZP+Oqkw4JtViigQrM8Gd7Kt81WrTzz6u1VUFVgGRfLuXmJYzisN+DtW/GQQVsiAmaH+kyL1Ex4/ol1SXFahoH4BmAruDOBYtWoKgkMFsHgZCkB/kwO5xfiwYM3NG02v89D31mdcJJC/VkRppjcGDtkvDg+r+e981oGzr3HP/aBZlufeXjXuYu4XCF4tbrZKlVhA8hmKC6Xiu0hEfI1qarnsU7AFgETr4LHV8DzUEic53libDIM07Nnz40bN1ajKgkHrouqhHQYY4ZhJElKS0tr3749QsjPz69nr3s1Gr+g4IDgkMBhw55KS0shebHkaBCqVhZPhZIpks2Od/6MG2nmhqLvf92NzXbsFjnwb1RY7OTu0kDVyjManEE85EhwDKRJgJeHxxyFeQYG7TwPiROcyPIiDFpgGM9jlpNYBpx0HA2NpSC7UeTw/n3HBw98Ar66mnMcBnCKajVPXdtdpxLgb6Pq7YDdHfvOeqlajw5Axei08jBW6anXhigrQYWC4pSEUACZZTHtwDY9dlogGrGkCLtcWFeiDEeUQAGBSOcI4EbXhG/6wz0AVTa0/hfKLdnpstI0BCiYzXh1Iu7Wcle0787mQQe6Nj0YiZLvbb69TeRPc747K8AIHb7O2zZUR+eiCHG2HAvZLk4X1hbiV145EhO1ObrRhu59FulsMPp3OJTod4ytPP7g6z0BYZObNVoZjpK6R+5vg/Z3is4YOGDX2cvgLiDjZYISCO0UQalJwMB0NwvIljB28bydkihFAgFsWE4SKw6agLHFYWckNyM7OeziMCXI4LvgRbB2OVbieZHneY7jeB6SCERBfPvtt5csWcIwDMuyZP6qfpDJssxxHMuye/bsGTFiBFIejzzyyOHDh4uKirZs2fLPf/6zVatWZHnTpk1fffXVo0eP2mw2Nc/YRVFK1JRyfxKxWYfv7/pd327TbOXg4GBESGev9vC2l+s/sH/uu3fCA0C8UaBUo+gauyjG5YYe8JTDEN8ru8CzDgkUsA4vUZxk50SaheMucKzEKllrkoAP7D92E1SFWgDFddQCALDeoq16xwh4O37o1qlK38wEay1UVY4dK+CLF2yvvbKkS/uPly05oysFE3XJ4kPvvDXd7YbbJJldgTkHlaremlV/hF/1Fq4oGUQJOJ7hBNFo4+wOPGzQ8XC0I0azf+gDRfOn4vf/YWkXlh6N0p57bFf2VVxuxA6aqZWqkiTZbW7KDfVlC7X44w+LWjXfHaw5Fhme0a1vcpkDpqnsNGdxsSLGuQbce1Aa8l/SstmuN18unD0G39/qXPOgDISWv/bmWaMRhufkr/D2AHAy+AcoHlucmBKxjZFdClI9MQbKBUWzoG5DsWARE9uDFTEtMIrVIoL5wss8NJFkn2GM7Xa70+ksLS2dNm3aRx99BJ+qeBBDlUz91xoAoNfr27ZtixDq0aNHampqUVGRVqs1Go35+fnXlEdCQsLDDz8cojwQQj179pwwYUJhYSHP82az2emysywN/mYZcy783bit08Zv41yKspKiolKxIZ7/G6haeW4T5SEBU7zsckGGjYwx76KdLAvzoGC6gruHh4KasqIDIDt4bONlB4RTwAOiXTge4lkOHto/6LFBlV9NzhwZrnEvW/WGVK2Y7ldnqLw7f8TE0e3g42/7zttOVQx+L88ENA9zO6PeX3tf528Wzynq1XHCyNd3GrR4xsSLb74aK3DY7gaDjnjK7hKqYhliqmSMzU78634+AP3UvsnBvz6fZTKAN6CkGD/c82TrsEOdmu8Y/5XWTWEnwyoyH55odtVWlSSJ5TDtxmuS8cO9DjYJSdego/4o0z/gYNe+KToXiABZWcpCcYUGPHFmMQqaG9540zMvZpab8ZWLuPg6HtTvdHjYPuQz/+hxCHIiTgDy/cTbQEMtRUwJuKAUm1wwJSZi7KCgeilNw08LAtiwJASWYcH0tttB65aFRDaIwyLXESeInMCTRi4loxH0xGw226ZNm0aMGEHAWrEBsCVktWrPPM9fuHChZcuWfn5+CKHw8PBRo0adOnXKaDRarVaj0VhcXFyoPE6cOPHll1/GxMSQlQMDA999++2C/Fyluh9JHIE/JvuSMfeaVWLhVqf8GXBNE5ISrDZQtfIQKPWHKQE7lMbQvJMWzAJmgKdkJlUiVKUIefnqVBXBzhWh4vzBQ78OemyAOvVfMavaQNUq0VTe/L0TVFUigQCsClW7tf/o8F6s1+Kci3hg7wV/fXrbghn6F4cvtFshrpgS7EDVihqrHiVAVV/1jtuqWPFggCoFxq+/taZR2Iq2zXb3f3ClyQyGob4cT5uIEVofGbjz+eFnzCZMszAe95qVVu4pkiAoHJg6eUfrJrPCNYkIJQ0dTLVtafLx29vj4dQyCr7fLYJkl53G/R7ZGtVsOwpInbMQWyjIHiwtwUMH7wsK+DUyYvP0745iEVNurry8vIKqnKBMMdmdePcv7rHjjqStMpQZsVaLV6XmPvrIlFdeTJz27dkjB8HP5nTg3buoUR9tGz40adzoU7/uFozlEBzGK2xleYHwlPhqZVlWYqHAPgVkU9SBAwc6d+5MwEos5coruWqPYZjCwkIyxm/btm1ERETjxo0RQo888siCBQsyMzOLi4tLS0vtdnthYSHh7Pz5859++ummTZuGBAYhhD58/z29rogAVOAYuD+IMud2g5Mabg480ahWLdYGqlYeARmCpiAaVYnW4ypego/JE7SsaNkq+qpKPCNIAlLQIE4NjAKPRYCFg0cyBg95RLlJ85IS/K+A9XdT9b/LPr1pqjrhWJA4dKJ5qhymm/cAVPgB4OYIdBHBaBr9afwTgyecPoLtRnxsPx50/4L+vWa9MGK2WdFXpXhamdPFMtFXJarVoK+6AzSr7jBVFbuO47CLwTYO399/XnhoWogmbfb3BqsN2x3YYseLl2GEFjdvevqB+49wysUOVIJsH2hKGqWSoi5gsxH/MPtwiyYf9O3z44+LbVt345im6YGh6+8bFFei2KosRFdhiw3fd39646YHI5qu33sU2G1yYZsDv/XmaYQ2BPj9/Pyw9ViZhIBwAc+lAQH/nIAtJjz8id2hfsvvbZ+esBg/PfBEs7BljQOTmoVu6NBif/uWuy6dxmM+1QehKZ1arAxHyzo13ti5WdrYT686bWCusjLHyE5e4uCmplxU3pwiMVKyLGu12nbt2uXn57MsSxYS9VXvTAHYc7Kcn58fEBCAEGratGnr1q1jYmI6d+7cs2dPhFB0dPQbb7yxf//+69evFxYWmkwmrVbrcrn0ev3aNWtf/svLYWFhCKHGjRtNmTwhO+uiLLskyUZRelGwYyxQLpty4atEhY731lby5e7r3Qm/KoFphV1JqMorMtXez0qSBThTFPEFT9wvQ16SlaUGqt46/eu1Vf8oqiph7YrFijE+dVr7xj++W/TjgbJibDfh88fxX59bOnjAR6BSDBqQSvKQAIlGoFodttknuAgFVNStuuNUJYrINgpbWdy7/6Kw0DUKVUvtNhgRMQxevx37R6RGxJzu2HEfuTFwgsiILCPRjEST9AdWhsxLqwUvWJDxySepF65ioxv/cgj7amLDo9b1fHiZ1oRdPAgKu1z48iXcuNHPPj57wmNWHzwN8QBWBiagxozJCQneGROZ8fTgrbIbJmkV5pNrBG5+Ag/gfvqxS8Ho1yaBZzo2udi1+e6+XX55ZkhOENoYjI6H+Z147MHMJmHLH75v23NDzjzxwOXG/hsj0boHu22/cAZuEm6OYrFDCW8lsauVmBIF8LQShhGdwPvvvz89PR3UkB0QGUZRUHKcTGQRjnlTNTw8PCoqqkePHi1btuzQoUP37t179+59//33I4T69OmTnJxst9tZli0tLXW5XDk5OSUlJSdOnBg2zDPNFdMo+LPP3iosOouxneXKWdZGu51kGq3mpBnZ6LuPpZVbdGeoqqZTQxh0DZ5WnDeYJQz1fiYrEyITqg4aMlCxcUXRM/NBcgBvxa9662zytv7+s/p3gqqe8HKW5u02ykxxvMUmcxy2GPHP67Q/zDjktIFbvNziLDNawLxVhv93EVUFbKWxmcO9HgaqBgek/fB9qcMKF4nTiX89hsNbbgqMOBoZvT77GoTRMwKmRZmWeFpiGbD+REaC2XmGhwl6q5JdRWF8+DQOC0vz16ztN3Clzgq1LuDmw+JzJ3Fk0OaQgBMhkStPXsYWGoDrdOHZs0yhobtjIjMG9FlJmyB8QnmoadmCIIKr9KlHs4LQ4TCfo+2bZ6xLAYnFvGI8anRxVOiRFpGZASj51ZeOZ2aD7+LXnXhwn8MBKKVtxNqViU6Ww25GEiEuXFJVY7yzYyVJYpQH8QaYzeZhw4YlJSWR7SATaJIkqWD1pmpkZGR4ePgbb7zRvHnzjh07d+7ctUePXn37PjB06JMDBw7ufd/97dq1X7J4GU2xhYWFer3eZDIVFxeXG0zHjx//+2uvIF9wJEREo49G/T1Xe85FmWjarfDUE7pLcF95E6jD1Us29U9/vnuoCmz15qm3ldpA1d+M8jtDVRhOwjyKwy2YrG4TuWgpF37m6bH/eGU2p0xVw0Qvxk435U3VoNDNfkF/tq0qgHOTUDU4eFVY4Kofvi912iDwtrgYpx/HQc3W+YQc8PFLOnsS5lfdHHayil4lDXNBIIDIwtQ8DdqVDCNhpwj5pIdO4+joTRGhu/r2X1tiAs+mEnyFz53AUYHbm0Rc9Q9MPp+N9XaY0C8qxj/MtgRptoX477i/c6ytFCs5n7Jy5hPVZ3DdEqoGoIMBaM/zw7MKtdhJYyfG2/bh8NDtLRtdiAqN37kLuwSAtcDi55882thna/OA9T99r4c8MRacAIrigEd/y5uqJKqfxJaqbtZ33333iy++IFkDxA+gglWSpLy8PI1GgxBq1apV06ZNZ82a1aFDh6ioRj169Hp08OOPDn58wIBBzz37wuBBj40Y8Wz7ezr26tU7MTHR6XQWFhbm5WntNqfVYtfrdRcunnr+xSGaQNSsZXBQCJow8Wvyi4pmJCSDNVC15q3CO2Sf+OLqfZZ5mBwkzZPlB0auxwPwONiqGGIHPDPPJHiVI/GqAnVlN8QAFNYTWdVgq/79PszXXbkahDBqn/ZVDy3IOynSHp5joFCVxzZaMFOcw+aiGQ6CN59+4uu/vTRDACsJOxkY09ocLpWqnBsHhW71Cyry1RQFBu/6U/yqpCydhcJGHnfqMycwMK1R+IZlixxuRQ22pASfvIKbd92DAvdFNdp09iSg6vBx/NTwNT26rX+oz6E+9+7r1nHVE0PSDh6W3FC3y0XLtFuSLQI+dAbHRG2OCN3bt/96QlWeB1KfOIRDfX4ORMd9/ROPngP8KXGGQNWI0F8CfbcN7L3SXqbkCwCGSZarIjqLscuJnxmWHRa0JyZ6x5SpNM3AZw2MlF2GwyNSw4O39u27qswEcf9GCutN+Nknfm3uv7ux76YfviullfRFWqiPqkQTgGVZ4g0gc1bTpk176aWXyKH3zvqvZqs2bdr01KlTrVu3fv/Djzp27tKufcdhI555ZMCjTw179q13Rr71zsgX//Lyy397tf8jAzt16bo8LsHppowmm05fzrKszWYq0V0/dTZj2IiBAUEoJDSgY8eO165l2W1Q9wVisCoKwNzwzFRP0T+xc2ds1dtIVeW0A50MDoKrBKxQFXQAGqiq3DzqtlVNWHaDg0WCkankma2Cmow3OVsFZo7subMpIZwUJ3lqHzEcNhgg1mfdqpzYRRfcdpjdxRgXl5WznATjTx6c7RVULfHVlPy5VLUxWM/gB4cmBAamNYnY+P20IocVCGhz4l+Oga2KAvf17nfOZIRbxbFTOCxqZoDv6paNzjWNPK1BK0PDpx85gd08zPIDVWW+gqpbI0LS+/ZfrTNBeBPEYjP46gXcLGJXiP+xkPC0A6ewC/wn8NbXX2WHh+8J8d8xYvA2V7miS+BFVeL/NZTjIY+e9UUbw8NXz/9J1CuBCjYsH72ENZpF0eGbO3edW1QO1iuDQRrmhaczWgVmNNds/3GmjuPAGGElGZQElLQlAQ5FHfpYoCrtKbVgt9uTkpLeeOMNvV7PcZzL5VLRptVqAwMDEUKRkZEqVXfv+fXw0eP/fPsdhHw7de7+6t/fGPHsi4MeHTry/f975e+vDX/m2Zde/tvjQ5/oeV/vFamrdXqTw+EyGg1Gc7HVXlRuyl+/IbVps8bh4eH//tqfflpoNpspirLZbEaj0W63qz+tQrPmEvWtP6vTQNU6Y5J+86D7rvrg7aVqBVg9gfEixK5nXjNCyr8d2y24IAd/9sHOq+ewQQfpyIIMKUC/jar1XyHe6ir1r1ntXaCVALJJxU78/Os7IsLWNg7b8NnHJy3lUBLG6dzgvoYAACAASURBVMaLVmCfqFQUuG/AY9k0BQP5bXvZwMhvgoITmjTa1zg6PSg4ITDym217WYoD1yotim5JtgrgV42J3B4ZsveBh1foLKB3x0tgchpKcM8O+2PCjkY2Wr1xFyigsErY6d//kRESvDMsYNebLx1hLGS2CjwAytQCKyr+E5rFLz6XFxWeER62cf5PYI2C+gDG+05KESErooK3DngkyWjDZgaXWkHcdvhjB5qi9BifjXOmZblpcKm6WcgEvSFViWyVEi2uqGphvHz58ueff55lWZLtSkblqgcgPDy8cePGJ06caNmy5a5f9mYcOJKZlftr+oFX//7PJk1b39f7oTf/+d5fX/nHo48/OW7CxPETv/34k09feOkvPXr26XbvfZs2bZZl8XrORYdL73DptYWZ+drc0aNHKzFbvt27d1+9ejWxkZ3OKpIC5FDehc7Wu5KqcAe9NQ9Ag61aF8pvO1UhRgeiiZUMOhiifvLRgheGz3v2iYX/eHnZ6y8nRweMfPOvG778PE2vxw5lBuZuoyoLcie42Ir/NepQTOT6xiEb33rlUHkJzCz9e5u/+MYcGbPNX7O9b78MQzlE2pda8PxludO+N02Y6Bg/wT51RvkPi68Xm+C2wSnlENwi5KQePo2bRChUfShRbwWvKy9DxivtxAP7HmwRfSgwMG3BclxYjvUObLDgJ5/YFRS4Mzx468fvHmFskKKteLoqqcpgbLTiJ4eeD/TZ0Thqx5QprIuDWuE2CZ+8hDu12ROK1t/XY7HOqESG89hkxM89caiFf0Yz/83zv8+hGTCKaV64SaoSWhEHK6lle+LEiSFDhly4cEFVS9FqtSSySrFVm586daZ167abt+7M1xYXFOnOnLtUVFK+cFHcIwMe79S5x7PP/+WTT79486233//wo1GffjZx0pRRn4z+5NMvevTo9eyzw/O1WXaHwVBeyLBQ4Mzlcm3atPmpJ4cFBAQ0bdp06tSpeXl53pRXkeodcVXtlvlnvbwjVPV2AJD+Df5cb69r5YdlWVRzqxRxX08OAaTYgSSQ4gEQqUu/pI3sjbTLHqPiW1Sq/3lL9Df4VcGv+rs8AOoBBKOG6ItKgshjvQ5PGrOtTeQX/Toufv2FnS8MXReA/u+lEWmTJ6822oQypXI1JLTfnAdAyRHhK0Qf1N/0dLyNlFu1Vb3OMMnJWYnFunY107bJpt4dTvfpuKn4GrbpsK0Ud2i0t0XQ0RYRG6aML8MypFlD1WUJokcrUpUgGIUTgMJQEFSpXumS8KVrONhndbjftgf6JVogxwkm9GwOplyPR3+oi/LfFBa4Y9hwrdGKdUaYrXqwX4Yf2hoWlHLuFAQAcBwIYkkS5KnK4CGQWYxLTfgvL12NCt7ZNHLX1Mmii8N2ATtlfOYibh62Mdp3+9DBW4wW7OTBhqUZPPihda2CfmkZtPXH74tot0JVgSGj/rrG/t57lQSlktgm8pyVlfXkk0+mp6dzHMcwzLVr1zT+4AHQBAZ37d7r/IUrzZq33rFrb1GJPl9bmn29sLC0vERvOXvx2ozZ82OatRz42ND/+3T0l2MmfDjqsw9HfTZ24uR5Py5avHT5Cy89375zm7UbV1Kcw8VYTVaIbS4zGHX68omTpvgHQMpAu/Ydd+/5lXh+iS6Mmv3lPZdV/Sz5M17/l1BVVKjKYQErVIW6VQ1UvZ1+VfVc9VS9FrFS4g2wYjXg5IXmFx7d9P2EYmcZHtp/VfpOCJYsNdrAUuPAh3s3UVWwM3oLZWV5XFqIH+69OwSlBqNlo9+2LJjKv/Pi1R6NT0WhTZ2bL9Zeh5LAJHOakE59VrKAQL6b58BsZ0SIVz1yAgf7JoWi1f16x1lsUEeEF0UoROPCuzbjZhGJTUL3atDGUf/nnjcHD3josD+Kbd5o5/AnDjocGNL2JZIUy6hUpTC2MXjggF1BKK1J+JYpExkHA0axicInTuOWYWubaLY+2CvV4QCnarkTyr49NiAlxndlY5/kBTOL3A64H1A8ffNUJbQiz4SqTqeTaFz9/PPPZB7J19c/IiKqdZv2waGRe3892L3H/bv37MvXll7PLQKw5haV6C25BaXHT1+4mp0/8qNPops0f+yJp8dMmPTRJ5+PnTh5zIRJS5fHjpsw9rsZk/s+2Gvkh28XFOfnaXP1xnKLzWGxOdw0uzd9X9t72kdERQeHhr3y99fIuceyLEVRJKa1gapE0Fa9KmvteFkS4E7ytHps1Qaq3mEPADlsYNdUVO+QZEjZMBjtAo9FGmeew08O+uGFp+IfvG/mqWPg0eMwBCTBtPLdRVUJY9ktuSiepRm8eD7d854dkWhNK/9f2gRsj0QpjdGqfp3Xfv/dCacbwh5cFNQiVSb0PIUAQJJZEkklLkngeIliJGxx44zDuFWzFU3C04CqJlCZAdULGQSZrFb8/ruHQ1BCI/994Whn89BfozVbWsdsaRz14/q1Iol/glovIJlKyoqAM5SSoQbA8KF7moevbR+z+YdpLCcDQPPLqf2HxSYhy5oFrOnfJ8Wt2KQWF7bZ8RuvbG8Xndw2In7BrOtQpkDENE9kNzyRVd6Wac1+TarqdDriDXj99ddnzZql1WqDgkIQQr7+Qfd06LL314MtW3fYl3E0K7vgytX8khLz5Wv5x09fvppVYHPyBrMjK6dwy47dDw0Y3KN3v8++/Gb6rB+mTP9+1pwfklOTVq9LW70u7eNPP4xpFh2XGGdzOmiWN1msTjeVk6ctLdN/NvpLP01gVKOYPn36lJeXk/hZVa7QWwimVqbcyYUNtmrDbNVviQGonaoQKMlY7RAJ4LBC6tSMKXtHvp147SrWGVlWsVDhhnnTMQB3xAOALU6zCAFM8M9kxvFLpH++cK2pJr65X2Kb0NinH9myfGFRcSmIHAoyNhitijqMJwmQGJJgqyoKy5IAAmyMLLIYnziL+/Vb1LXLT/36TjObIfOKY8FAsLnAijQY8MzJ1nvbbolASU0CV0X5L/vbc0e2bgJ5FAZ8CGw1qgqywMogX/v5x4f791rZu3N8/CIT6GNgcAJcycZ9ui3s1z35icd+LLfgcju2K1G0oz/f1r393O7tZiyYe4SmwValeRAMVM3VmiT1XlKTqsTNSmRVp02b9sEHH4SEQOJpTJMWPr4BBYX6iMgmGQeOXbmWe+lybkmJuVhnycopvpKpzcopzsopzNGW6MrN5Rb7omVxLdrc8/Cgx/7v09FTp02f/cOcGbNmzP1x7p5ff/lxwfwhTwx99PGhWddzQbYOtGBEk8XKi/KuX/a279gZIRQSEnL+/Hm9Xk88rcSOJg7WO0nPun7rz6cqsUvr2r4KQxXeJ7bqo48SzSolRVopMaZcp+BXbfAA1LRYb9Nslffx8pirMMvtkLBNlG287IKLgQWw0hRM48A8O0eBArxSr/hu8AAAWZTIMBBzEkROZGkeagFwoiIIW4TPnsDZVyB6gaIAqTSoiWKWw2A/Eu1KTEkyNLAjYfwP4gaSDKG6FIaQKacI9xla0ZmGGlVCRfS1DFpTvADSgtcu46OHoRqN2Qw/zYLsEGwMEcb2KGCQ0qTgZAE0c5TSWMXDq/hbQR1GUSKmRZDbII2C8T5mKDgK8EGRJZpwpKDhzfhVCWG92erNXJqmk5KSQkLCNP6BEZExrdu0P3T4VPMW9+zNOJKVU3g1qyCv0KDTO0vLXSUGZ15x+aXsvLxifbHBcik7T1duzissnTxtZqt2Hf757vtz5v+Ysmp1XHListjlK1evWrdxw3fTZ3Tucu/XYyZwEPun1J5xUxLGJov12Wee9/MLiGnUZO4P88GnRNMOh4NUgvE+Lf/EfgNV/2dt1d+VBeB9ylZQlZewC6iKy3loNgi3qtDPdwNnsNVlgdqid4etWpWqIJhCi5SdARlompeMVrebUZKmOJHiaRBa4500yysFrICqpNVBVUh4cGGIG3UpjOMqAnuVqlMCqJyIrJtlQKaPVxJaZPC6Voi2VEdqJVslJU1bgFAEolSrlA1XZPNFmENj4b5gU4IRBBZuZwqIwRRneFIUAPQ2oUzs76cqcQXExyU2adIMIdSmbYfDR043bdZmb8aRgmJDTr7uel5pfrG5QGctMQBby610dkHJkdPnDVanzUWfOncxO6/g0rXsF15+NTSy0XsffTRr3vwVqStXpKWu27ApPeNAUnLaP9/617Dhz+Vri8n5xotyaZn+2rWsjz782NfXPzo65v333yepCkSmwPu0/BP7d4Sq3n9fjRiAG9mqlR9usFVrmqI3XFK3rUqo+hs1qyqPChEeAxtGVIoQuyQI7LEI2AJgBSkoBwtLWKvbhLFMsZCxWqetKoCQOQzGIXNOAgFIWLWi3LP3ryqaSd6mk1pjtepatb+C3DCFLCBdihkiPsnJVqNDBxrPEnaAYQQPDjOUaKV4CyipS061ML3i8fSoqclKZqUsgDAosVVpDPXsXJBJAITlPJVQScErDoraKz4HIIIywc9JTl4y86KTF+hKkTao7600CDCFBnglKRtK1oYkwcZDARUi+g4+W5vSOIW2LqUQAPRJZUBQOgbVzcp0Ve8dWFe/LluVYRiwECV8/vzFbvfe5+MbcP7CtY6d7s04dDyvsCwrpziv0KAtteQXmwlbS42OnIIyk4POzCvKLSi2ONx5haV6k1VbrDt++tx9fR/s1rN3XELSps1bd/2yNyVt1fETZ44cOzVm3LfDhj93+uz57Jw8lhe0haAewLL8Tz8tRMg3PDz8gQceMBigXNjdkw7wX0LVhsiquvB6J6jquRxJwXdOkinlOnfwAFYosKxYTy4B827OxUtcHVRVlAC9qQomFZQOuc1U5UDVl9wAZKvOpKVFlwDmKlQzZWWKke2MbGdFGyBVaYSnRJ+UEEcpfy3Bs6T8+VAcFIbhFHZR2MXKYEXCfQIKCAJSSeMlkOjnBBFqXogmTiwXJZcoMqplClUHq1LVozdKqj5BcjwHk4RAVQWsIMUAtzGPAQu1VRwKWF0KVV2K+h+4blWw1kVS7+U1qUruN4RioiDbbU59ueWeDl3iE1NCw2L27Dt8JSvvalZBUam5WO8o0FkJW3MLDWVmV5HeVKAz6k3WMqPF4nAXlJTZXLTeZC0oKUtMWRUWEfXWO+/GJyYfOHR495596zZs3rf/8KzZ83rf/+CWbTvMVsgj5jjBoDeKgnz0yPGQEJgr69+//8mTJ/+HqUoOSJXnm7VWoRbAwYO1+lUbsgB+E1VrrVt1UxVWqhxAuE7BslMuRVGBAkzmqPgQZHAqSrAOBGLdgKpKLg9c/7eTqiQGlkzlK+YeoxSmpkTMQqlkIhdbAUEyEa8WMVX+QAU1JFAXosrgAQQkVFVG2QraKA7m7aFUJdkbAEElWAJ8pIp8sPJRT6g/4Wm1AAP1pSc1BoxVqA6raH9BsgyZMSN2PanBSrTgyT3JazmvLIejRA5faWkpKVtNjp3LBUkKxEFpt9vViSny15Fnb9qSoTcsV8rBnD57/tXX/hEd0+zI8bO5BaVXs/PtLsHi4q9kF5SU2wt0Zp3JqTPZSdObrGrTFusEjK9dz8/OK8jXFo/6ZHSXbj3HjZ+0eu3GXb+kb96yO33fkU2btz/z3Euz54Aj1WSyMDRHJALy8vK6desWHBzcvHnztLQ0p9Npt9uJdGHVU/SOvrrjtmotf10DVW+jb7deW7VWqiriABUXXi2Hq5ZF3lSFwsjkQXSRSbI5wFRp8GnFWMK8RwfAP5DoAFTYqpVUhcmb22SrVqGqYjwSdFYwSKmyVlGeGmxMSSLGKS969JM8uQ+eDAgJ7gJkkA7cpAipCUMFpbqd9xKix+atyO5NKxWj1TpeVK3AuZKCSFYjJPXuV7DVkyxT+VKRUv23fsqkSZOioqK6d+/++uuv79mzh8zsq/WoicYKOdokgdU7i0ldQo612Wp3Uczlq5nvvf/Bq2+8deT4WZ3Bejkzt0BnLjO7jHYmW6tTkaoz2VWk6k1WB8Vdu55fpDM4KK6wuIzj5YuXM//6yj969rp/+sw5J06e37Bx27oNmzdu2vrq398YPuJ5nU6vVCwUXS6K4zij0Th48OCQkJBWrVqRUjHk3lDLeXqnFt0JqpJrrjZ2er9T2/tV90KDrVqXQVrP8nqpapWxG65DJVMNuIDdSuNVc6bqEbjxK286EKqSwaZ6pOErKqjKUjgkZKt/YIm/f0lgMFAVpqoJVRU7kZSNuB0eAG+qEpISW9Lb7iOWozJsB6rWLPlZcftQbyJKuJVCVY9NqlimhKceqlbosiu2amWdC7LfyP6tBtObfOlNVe+PVMK0op4RAaLJZJo3b9748eOvXr2akJDw5JNPhoSEjBgxIiUlhWyGJElOJ0hHk5OBfMr7+Kp/vnq2QICHjCdOmfbu+x+dvXjlen7xlev5ZiejM9nzSwxlZofaDGab2hhBPnfpqq7cbHczmVm5+nILxQiluvLtO37p269/vwce3rx156afd/68edeq1eu/nTyt/0MDs7JynU43D7VnPXZ369atEUK5ublKmVEoI3rjk/W2rfFfQlWsaFbBVGeDEmDVfNy7kKoQKaNMWHmoGlTk718UGLwjK6cKVZVkTagQ8Z9AVUJdlaqeQkGqraqClVipddmqd4aqqrz/nDlzZs6cSVSoOY5zOp07dux45ZVXEEJDhw6Nj48nhaY5DhIfKjw8lVxVqcrzvItitIXFJFTZYLb98OPCF15+9dr1/My8ovwSw7XcQouLNVidZWaHweo0WJ3lFrvaDGabrtxMrFeT2W4y2x1O2ulitIWlBYX6mbPmd+7S872RH8cnpm3ctH3lqnWzvp87cOBj+zMOQlSJxS4KstVq7dChQ2RkZGFhoVqwQPVg3DZ41vnFdxlVa0QIeG94PbbqrdVYrcqdegy9/4K37jBVqx0v9RIkyz0vyXSJUrcqJHRzQGAVqjIVHgDIAJVZJRzzj48BILaqt8Xqbd/V1lf/lFo7Sp6VkrBPrN2beSa2cIUvtdavrbawMpurti282XcxxmR0P3Xq1HHjxtE0DQVilUE1CarneX7dunXDhw/v1KnTkCFD0tLSLl++TLyuPM87HA4CWY7jzGaz59sUK5UXZZrlZZABk7fu/OXhQY9dycrLLSgttzj1RrvZRpVbnEarW2lOo9VptrsIW61OyuqkwBvgZB1OVl9uu55bpC3SG0yuYp3l/OWcd94bFRnTauyEaTNnzT+w/8iE8ZO7dOmWlrrK6XRnZmbv3bu3cePGPj4+165d4zgOyjLL4Ikiu8/7nLwz/f94qio+exhf3kLl6gaqelSr/3gPgPdZ642EalSFENfaqMpKEFdZMQ3SQFXvXVg9TfY3g5VIk/ybhuPGjRs9ejRBpMPhUJFKhs9E9G///v3vvvtu7969BwwYMH78+JycHKJpQtYh1QF4nnfTLMtDfho4ZwUYjdhc9KVr2V3v7XPuUqa2SO+kRYudNlrdZhsFze4y210Wh9vicDsZvrisvLis3MnwVjtdUKgvKil3uYVinaVEb9MWlV/J1HIi3n/oTPeeD7z7r1Fxy1ekrFj1wgsvTZjwbWZm9vXsXKKWrdFoyOZV22tkq+7kcwNVb+NM0d1g6t6dtirx5NI0DgvZHBRQpPErCg7akZkL6VkNVK0GBa+XN2uN1g9cUtqPpukZM2ZMnDiRiJZ6C1PxPE/qrJCIVCITdfz48QkTJtx7772dOnUaP378hQsXGIaRZZlhGI7j3DTrohhIkRBlVsn/lRTHDcXK/Qc+npiyhuax1cGYbZTFTkNTeEpMVMJTwlani2M5bDDaL1zMNJhc2qLy7NyS63mlBw6fu5Zdsjw+rVPnXivT1s+bu+Ctt94Z8804m9Vx4cKlPXv2tGvXzs/PLysrSxUEUPfbneQp+a0GqjZQ9Y+crfI+g9XTWp3N8CwhtbKVMtcKVQs0/gXBwdsyczEtQ35nha2qqN+BAN6NPQAY41vKAvhf9gAQR6osyxMnTvzqq6+8q1KrrlJRqQVADgTDMCSNihzc8vLycePGDR48OCoqauTIkdu3bwdHrcvtohia5WmWpxjBzQrEcKV5bLS6X339nSWxSXVR1eJwE6eq1QlKiWV6q67MYjDajVY6V1t27XpRrrZMW2jK1RoSU9Z179U3LmHFyrS1jz8+dMb0769cvnb50tWTJ09269ZNo9Hk5eXV9P96n5N3pn8nqPpH/SUVftVHyReSSxQC92DA0eABqP328CfaqnUdd4gKUGpeMQyOCP05JLAwyL8wJGR7Vh5mZNAWgQsD4rAgVgnCiYCqnqle7+/0prYsy2vXrO3evftDDz005FYfQx8bUmur63tqXbly4eAhQ+tpt/hbQ54YAs3rUflDdXzVjVZ4/PHHn3rqqccff/yBBx6YNm2a3Q6h9d4703snq29VWwhFDQyGmTNnRkVFtW7detiwEakpK+FCVB5ON8UJotXupnmJEeQyo+Uf/3xn1tyf9CYrJ2O9ycpyksFo1ZdbXBRH0ZLaLFbKYLSX6C16o11vdBYUG7Pyi7O1kPyalVMcm7CyU7f7Fi+N+2nBkuHPPDv5u2lFhSUXL14+depUy5YtfX198/Pz//SwKoxxA1Vrh9HdMHj/Q7bhLqUquFWh5GdE6M9hAYUhfrVSFeLqFapC+kDNq9obBKIgGo3G3bt3nzp16uCtPg7tP1hrq+t7al25cuG+g4fqabf4WwcPH4Tm9aj8oTq+6kYrHD16dM+ePTt27NizZw9BqqhEsNbcw2SJ93727pNYAj8/P19f386duwYHhwYFhTz15LBVa9ZqC4sFJeuDU6pygWKhII+ZMOmzL78xmG0SxhwvU4xAsyLHyzQrV6OqzmDVG+06g72o1JxbVJaVX1xB1dR6qIoQIlT9c8OqGqj6X45UKQ7d/VQN1wBVw4K3X8uHLE8vW1WhqkRqAdyYqmoQuzqMvemOmq9QrVPXF1RbrdpLj0igdxCVV7/ayurLOn6rMstAXUH9yG/sEGuOYRgSe0TTtFrBtFawepPUu89xXGZmZuvWraOiovz8Atrf0/HChUvR0TH9HxnYsXOX3vf3W7x0eZnR4iSecoydDB+XlPLsiy9fzy80W500K4IogYxVpFK0RGzVm6TqpCnfeduqDVSt9fDdYGGDB+A3WK93J1VBErDCVg0P0Ib4a2tSVYba5AK4dpRU15onR7UrvGZRo5ofqWNJpTJ6hfJkvSF+FTLqVVdWv0RUwnGrPavv1tWpY9NqWVzXN9z8cs+Xulyu+q1Usp73fvbusyzrcDh8fHwQQi1btA4KCsnYd6BZsxZnzl24lpWdunL1W++M7Nazd8eu986cM+/sxSsUJ1KcuO/gkRdefjXrer7RZGM5iWZFlapuSvSiqtNjqxYawAmQW3LtetHy+JSOXXt6PAAjnv928tS6qOq9nbXswtu8qMED8F9urtZL1T8qY/XWTlLIsgeqym4OR4VsrKRqHnZX2KpYBv2nm6SqJEnqDIx6Od3aNt3a2mqm2M13av0B74/XukIFt6u86f2p+vtVPqa+IANkmqbVfUU66go339Hr9T4+PhEREa1atomOjtm7N71Hj16bNm8v1ZWX6sozs3Jz8oo3bNw28v1R/R4YcF+fBz7/4psdu6AC66BHhx49fppiBKPJ5k1Vq401Gl1l5Y6yckeJwVmgs+YWGrK1usy8kqsVVJ0yffbkabMGP/bEhIlTCopKLlzy+FW9bVXvP+3m/5w/as3/eKoq88twbjXEq9Zqyd46VX+DusqtnY0KVUWgKg9UjdRoQ/0UW/V3UJUMj+/UtVQ/y2q+W9f+8V6zjnWIAVrlTe9P1d+v8jH1xR9FVZfLVVpaSmxV0Fdt0+7EiVMREVEZB47o9KacvMJz5y+XlBpLdSZ9uc1gtB88dGz6zDlPPDWic5d7Rzz7YnRMs+VxSd62qsst1EXVa7nFV7ILlsat6NClh0rV8RMm10XVO3s+qLvW0/nvoSoH+QANGavVTe+7j6qgmipADSeZZnGj4I3R/tpwX2140PZr3lTFt2ar3tmrqH6W1Xy3+lVX8dp7zYplN/7f+1P192v/LhJKRRL8f+d96NSpUxqNxsfHJzIyOiw04urVzJhGTbZt3511PT+3oLhEb9IZrCV6S2FpeUGxQV9ucdO8w0kXFpfFxic/98LLzVu2PXjomJuRSHNQgsXOGkxgq5Yaq9iqKlXbd75XpeqYcd82ULX2Y3zzS2v1qxJbtUEJsFZD9UazVbV6AP54W7VqRraklBHxUDUmeGMjP20EKo4M3J2VWzlbpURKKpFVN+FXVedxficjbvpUrJ9lNd+t64u916xrnZrLvT9Vf7/mZ2EJoSrJ7v89e0ySJOJXDQuDIiudO3c9dOhIi1ZtDh89mZ2jvZx5PUdbVKQzFpeZSvQWncFKMYLNQVntbjfNs5xUUmrgFTHvmlQtNVan6tXrRcRWvadjd0LVQY8O/WbsxAaq1n6Mb35p/VRlwAngqVw9sndD5WqP0VqvreoEUSgSk69oyysaUX8YVUl2OUlw9Mw7UzQk9nA2AeozQaWmMJ+1zTRlIai0ediJPXshMNXOOFnRocxQYZZxKJ7FijDIqueKSgSVqneqHlz9LCPvVt3W+l7V/La61q65Zs0ldX22crlanVTdgaRTucbN9Xie12q1Pn7+CPkGh4a1aNXm0OHjLdrcszfjUI626Nr1gitZeUU6o9psLtbmYh1OGmKqlDhWRpAZQaZYWbVVTQ7WYHHrTM5So6Oo3Kkts+YVl2drdVevF13K0qasXN+mfdcvvpkw6vNvBj069KuvxzVQ9eaOVd1r1UPVhsrVv8lWvb1UJQk5RJVDVe10OWwYY72pyMnQOh2+p8mWKHS5mW9JINpcWID1VpED4DotdhMUeZQou8NICFvzvFCh0EBVr1Sxmvup+hJy7yHq1Oo+VPPfqq9d92tCVT9NoErVA0eAqkdPntGVukBbFgAAIABJREFUmwtLy7VFehWpRTrj76HqlewCQtXW93QmVB04eMiXX41toGrdx+fm3qmLqkQdlCI1ViXq4p609/o02Kp/vq2KMSZIZVlWr9dzHLdr+46Z06d9N338uIlfzfxh9oIFGVEBc0PQtnYR51tHbfjw/Q2ffDFl5twZIz958+uxX6auStUW58hQt+p/zVataYHe/JIbX0veJPXu3/iTVdcQBVGr1QJVff2IrUqouvvXjKxc7cXM3PNXrxfojGqrRlWal0hzcbKTlZysZKcFk4Mts7pLzc5iU3Vb9Up2QcrK9S3bdlSp+sWXYwqKSi5ehozVVq1a+fj4aLVa4uL4PX9X1b/yt7z6b5itaqBqXYbqjfyqt9FWJVJsRCZOkiSz2dyrV6+nn3xq8cIFEyZ+PWHSN7373t+8xeBm0d+2iVkZ7hvXJGx2+/Zv9n1o2Nsj35o6a/yM2dM+++KzZi0bnzxzrIGqXqboDfF6Ywp4E8e7f+NPVl1DFMS8vDzwAFSl6oEjxwtL9TmFpVn5xcUGS36JIb/EUGywWB0M8QC4ad7NCiR8leJEJys5GNHBiHZaKHfWTlUyW7UibUOL1h2++GbCx599TWxVbWHxpSvXTpw40UDVqgfnpl/VZavCUBFLDLFVRerSLw22amUkwJ/lV/UWuJRlOT09/Y033gDvKs+W6gpf+stz73800u7AaSnlbZpP7tHlx0kTLl25hpfGbeg/6OGjp/ZhLNEcPXPO9AmTxiqu1VrOEm8iePdrWfUPXnRDtNVuXNexFTfzbTe/Th0/chsWS5KUm5uLfP18/PybNGverEXLven7mjVvvX33r2cuXL2SlWe2UXqjXVuk1xbp9Ua7xU7bXKzTxbhp3slUNoJUByPaKM7s5AyWKrZqTnF5VoHuWp7uSnZR0soNTVt3/OiTLz78ePSAgY99+dVYbWHx5auZx48fb6DqbzzCDVStxyat660/i6qqKgfh3ZIlS9544w2X3ZGXk9utW5fdu3dC5Q8Z2524VIfLyrDh/9n7Ergqqvb/AWINUXJNQUOSxCXcwu11Tc1yyaXSXPJn9fJXsmghc8OFtzKLTCvcAJeysrf8ma/93BfkFRBZY5VVuID3cu/lrsy9M3PvzPk789w7DJcLaiIQzXzOB86dOXOW7znznWee85znyJC+jv2p1qkHB/U//P1BhNDub7965701Iqu2rKz6Jx+/RrcxDFNUVIRhjo6PuHh4enV5rOv/nTnXo2cfoNQb6TlFZZW3a9SgWr1do1aqcWBVPU5q6ox8UOMkhFo90RSr5pfe/qOwIva7n7v37v/mqndeD3kreMw/wt77sPRWeU5+QWJiosiqjfrn3k6IrNoUdTZzvp2w6s8//7xixQoTQU6aMDEpKYndCA+xbozZWSwcqXTsTqS1GqSrY4cCYdYGDn2qoKjgx5+PLlvxqsiq7ZNVEULAqk7Oru6Pej7WrcfFy/F+/k9d+W9KtUwFoaJafrtGDdwqZFW13gDOVVU6vFZP8AFsAIR6VZBVgVVjDh/r2qvf/7yxevnK/zdi5Oi31rxbeqs8r+DmtWvXfHx8HB0dy8vLwdqkdb9dbPmrI+hVEbd5p2hZZZdb2wmrHjhwYPny5evWfhT1+RcIIXCKTCPWm2qdCWkIRDKINLG+NuqMdWZkuHY9YWTwiCNHjyx8ZaHIqu2TVXlZ1cnZ1btrd99+T6SmZ44Y9Uy3Xn2+jo6BjVVKym/Dliol5beFrMqSKee4ulZbx/pd1VlCM6yac7MCWHXpijeXvPbG0KCRoW+Fiaxqy+j3+7sZWVVcBWCXUu82W/XQVwHwIsPx48dnzpyJYcK3OMNtCYhIZA00y60mhqQZI0Jozpw5a9eGL1mymGNVOz6r7nf8iOlbFgFwZ+Ps7OzOHV5eXpOnPnvs378eP3GqZy+ff0yafvTY/0puK8oqpDW1OlZilSllclWtWq9U6VSaOpWmrlatr1XrVVqjSmuEPQLs2qsW3bqdX1L5R0FZzMEfu/b0eXXZ63MXvBI4OOidd9+/fiM1J78gOzvb19fX09OzuLiYYRjYiYu3t+MH4Z+wHvtziAlH+Z/LofXuElm1Keps5nyzsmrrsepnn322bNmyCRMmCH1fcsYbiOQ8rbD+VhjaxJjAad6dTXPv7JK0ZMni5a8t5Vj1vuZ/Wm9M/p1LoijqzpYBGzZscHZ2xjDMycnpqcDBj/fxfXHeS4XFt95576OAwKDXQ966JZEVlkrUesLMIJ3eyJMp0KtSpQM+hf2s7sKqh4527emzeNmKuQteGThoyHsfhGdk/VFSdis+Pt7FxQXDMI1GI5PJrHtJWHhVZNXmRqnIqs2wZ1OX2pZV+TmrnTt3jhgxYvXq1cIOhh2sTawHay6w3v8trGo2k2fOnBkxYtjKlSuEt4jx9oMAwzBSqRQhdOnSJW9vbwzDHB9x8fMf8OSAwCcHBP7r06j/nL74/OwFGPbI519+I7mtkNbUVlbJSkorKiqlcoVaqdJBsO66ym4UWKMy3FbqbdZWFd26nVcsycovPXDw+8e697Fh1YLC4vPnzw8cONDT0/O3334DgRS24eLF1Vbeb7WDyKp3RBvRu4pdYm0nrPrLL7/4+flFR0cLSQHMhRqwKvscsM6YSZKsrKzs0bPbG2+sFN4ixtsPAmA8R9O0VCotLy/38/PDHJ0wR6ep02YOHPT04KCRry57/ZcT/1dWIR3zjynB4yb972+/y+QqPU5SZqRQavjAbaaikSm1MqWWp1ThitUmWPXp9z4IT065kZKaHh8f/95772HcERUVJZFIRFa913HSjKwqegK0S6ltrlflZdW9e/dOnz79o48+wnFc2N9CO0x2Pyt2/yR2J1GdTnfixIlhw54WWVUIV/uJA6VSFEWSpF6vx+uMej0+7dkZDg5OTs6ufZ/w8/MfMH7ClAUvLV7w0uKikvIdX3zl4+v34ryXbqRlyeQqtRZXqnTXkm6QFFMprYXAbQGgszisqtFIpNqyqlrwr5pbWJGZV7I/9jvvbr2nPTdnzvxXBgQM2rz14/8mJp+/eCk3Nzc1NfX999934I63336bd+hj45qrdQDsOLKq6F/VLrG2E1n1wIEDc+fO7dOnj82wbopVEUJvvfXWwoXzX1uxzOYW8Wd7QABYFbZi5XXlBpzYuDGC87fi4D8gYPTY8RMmPTtx8rTZcxds3fZJXn7RmrffwxycN0Zsu1VRXVHJag/y8ovAoFVyWyG5raiWsdtVVdawoSlWnTzthednL3iif8DGiG2p6Zn/d+bctWvXCgoKZDLZkSNHfH19MQx77733YMcdvV4v6lWbGzDNy6qiBqA9s+qxY8cWLVrUt2/f6urqpvpYOPqrq6tnzJixbdu2FStEvWpTgLXlef7zHzZiwOuMRgOp1eoRQleuxvfo1fMRVxfM0Wnw0KenTpsxe+68CZOmTJ767NEff0rPyJ424wVPr8eOfP9TVnb+bZlSyKqVUjUbLKyqLqtSsLLqLXYjAF5WHT9p6rSZs3r7PPHhR+uv30i9eDn+0qVLxcXFer0+Nzc3JiYGVAExMTFA98Jx1TqQdRBZVbSsskupbasBgNEMMwZ79+5dvXr1kSNHFi9e3NTIFo7+gwcPLlq06Pvvv3/jjTeaSi+ebx4BIZ4Qb8H0Qla17CqIEzS36zg7fxV/ZeDgQcBuQ54OenrYiPETJi17bcXQoOGvLFqakZnz719OPD1s1Kw588+dv3wXVq24bcOqY/4xafK0mT0f7/3Bh2svXLqSnpl19erVnJwcmqblcvmd7Qm2bdvm5ubWuXPnmpqaxrIqD0vzaDzI1Y7DquIqALvE2qwG4OF6VxE+eHFxcW+++SZCaNmyZd999x1oV0GUoGnaaGQNVEmSBNefpaWlgwcPVqvVP/zww/Llyx9kfP9t7wXu4Oe+eSrhbTZVKhVovcGJtdlkhvefMCXEm8IQ+tduGj2O63H8hTmzgVg9O3tNnDI5eMy4wCFDx0+YNPKZ4A0bt1y68t+t2z55tJP36rffv5yQrFTjclVdWYW0sFRSWCopKb9dVqWouM06Zykqryq+VZWVU/h1dIybZ5dx4ydNmTpjwFMD3w//8Pz5i4nXkq9evVpQUKBQKCiKKioqqqmpWb58OYZhU6ZMuaNKUigUMHml0WgaA9JU6x7kfAdhVaF3layzh0VPgDzDtiGr0jQNo9lsMp85cwa8q6hUqgkTJnz66afgtM1gMMB8AmwujxD64Ycfhg8fnpubS1FUTEzMu++++yDj+297L1Aez5VCxgQ+BWQoigLrKLVafb/z5jyrclmBhtyyzRaNEGmiKqurPvt8h/ujHpijQ/eePZ4ZPXZU8JhpM2aOfCZ4xMjRz05//uNPP9fj5MuvrvD1e2rrx5+D3wBNHQker4vLZWl/3EzPuVlWVZP+R/4fuUWHvv+xR+++wWP+MXHytCf6Pxn23gdCVjUajeXl5QaDoays7Pr16/369cMw7JdffuHVvjAgAQqeXh/GCOkIrMoZk5ssPqtofdbZwyuHY6V7J+ljHqcPONkJ++tdOvHs01EjbcuqMILNJnNycvKoUaNkMhnDMBRF7dixY/To0Tt37jx37hxIT8nJyf/+97+nTZv24osvwmOv1WqXLVu2devWhzHuO3yezbAq33aeXqELYNcGnnTuyjsNpVQhq7LcSlDs98ftmttfR3/t96Sfs5urk7Ozm4f708NGjPvHhICBQ54ZPX7kqDEjRo4+9N2xS1eTnho0zOeJAXsPHK6WqYpvVd0srpDIanMKS2/eqlTj5MX4/6ZmZu+PO+zs7jli1DNjx/+jt0/ft95+5/z584mJifHx8YWFhUJWValUUVFRGIYNGzZMpVIRBAFqintvHY/Sn4h0TFZdMQIr3ieyKvvyaA+sCgM6PDzc29vb0dHRyckJVuO4ubl169bNzc3N0dHRlTswDPPw8IDPRgcHh9dff72iouJPDGvxFp5VhRIoz4M8n5pNZrWa3Z0Bx3GblH+aVSmaJM2EGZlVWpWJMSGE+vVnxcaor3ZOnDL5yYCnhjwdNHrshMf79BsVPG7ylOlPDx89Z/4rlxOSfz7+H58nBjw7Y/blhOTiW1V/5BZl5RTmFd4qvlVVWFouU6p/+e2Ui0enoUHDRz4T3Ku3T8iqUGDVK1euFBYWCjUApaWllZWV/fv3d3JyOnLkiFKpVKlUdiX3hzFUOhSrcvtW6bPOHRRZlRe978aqFLtvlRnRln2rKHbrKtZitAXW3cODDdIBjuOlpaUIIVhQaDAYfvrxpzVr1uj1egN34Dj++++/8zP+8Ng3YzDwMB6GjpQnfO3ColLQVuM4rlAo4HM4Kytr8ODBzz33XH5+PqQEV088AsC/PAvz55uOwLc/K7FSNEnRrE8yE2MykIabxTedXJwe9Xq0Wiqtlko3bIpw83j08T6+/5g4ecBTA/38nxo2IjhwcNCIkaPD1274I6dgzdvv9ejZJ2TVmqrqmrLyKplclZdflJ6RfbOoJO7QYcdHXAKHDB0aNLzn473Xrttw/vz5c+fOXb58uaioyGwyq1QqmUymVqsZhpHJZBs2bHBycpo5c6ZMJgPTK4VCAV4CeEvqplv05690AFY108hkRqwGgGfV10ZgRftFWbV5WVWBmDoGtRKrmk1mmIyCp9psMh88eHDGjBn87kk0TcfExKxcuRJmrhBCVVVV/Ifbnx/gf9c7eVYFHygAA0mSCoVi27Zt8DWAYZizs/P7779fWFgoXJ1hMBgehFVZz7kcpZoYE2kmfvz5R8wRmzhlolavq7pdXXVbei3p+qjgMY916zFsxKgRo555ckCgn/9TAwc9PXLUmCFDh2/aHHk1IemF2fMcH3GL2vn1rYrqjMycWxWVZeWS3d9EOz7iMuCpgQMHDenavef74R+e444LFy4UFRXRNK1Wq2tqajQajdFoNBgMGRkZzs7OHh4ehYWFpaWlZWVllZWVOp2Ooqi7SuIPMnDaI6s21aNN2KtaWNVir0prs87F3oVV9znSdkNH1Lc2Lau2BqvyXWk0GmtqahiGUavVJEnSNP3LL78sW7ZMyKpHjx5ds2YNGAPAmK6qquK/VR9klHfse3mQhc20YVWY/s7JyZk4cSJQ6vr165cuXYphmKura48ePTZv3ozjOOhqKIri82z+q0VwtX49h5BVzci84vUVd+j7k88+qZZKCYqsrL5tICjSZA5fu657z17eXbv7+Pr17ecfODioZy+fUcHjgsf8Y+SoMT/89EvCteu+ffsHDBzy38SU1PTM7Nz84ydOdnms6xP9n/QfENDZ+7E174SdO3fu7Nmz586dKy4uFrIqfBKRJDl8+HAXF5fY2FipVFpcXFxeXi6TyXQ6Hf/mEILWUvH2zqqCbmMXM8bHx0+cOBEab+14W1bNOB+7bCR2c/8kVdzjVKyzKcbZFOMEgYp1omKdzPubYFW7VNsCJx+h991jeBgVe4TZ507vd6di3PWxXTVHBsW85rJ+0RBEShFdx+5NY0bIbHFwwv5kuEVqNIPgk87u33sbfbD2FNEMohmGJmF7lTu3btmy5eOPP14wf8HQoUM3b968lTu2bNkyefLkMWPGrF279ssvvywpKQHPQ/wE7r2V+XdMZX0QGihtbFgVIbRnz56uXbtiGDZixIjff/+9tLRUIpGcOXNm5MiRGIa5u7sPHjz4jtGFRqPhv44h58aY8jM/gsfTPqsixAwJGoxh2LmLZ28WFxEUqdLoikrKqqU1lJkpKbv1wYdrBw8Z5uPr5921Z+DgoKcCh/o/OTBwcFDAwCGLXl2enpH9r092OD7i9tr/rLx+I3X7js+7du/p07dfPz//Rzt1XhW65qz1AB+AGo1GLpdrtVqFQlFZWYkQCgsLc3d3f/nll1UqVX5+fjl3VFZWKhQKQeUbN/GBzrQvVuXHB6+SA2M6/i168uTJyZMnw/NmNplxHGdYL50mGplIlhxMiNYCq+bFTJIe6q075GqIc6VinalYZ0Ocs+6ws/6QM3XAEe1rEKyiK8t95n0uXHAz72uBQO91o/d6QEB7POwGPgG9twVKtKk2ivZAX3ujr72ZvZ31cb1u7vb7aqlL2CwfhBTIZGApVTh5KxxL9Y+JNQ1/hqdaQXrrRZrmnIgjlk0plqNZ1mYYkwbRWoSMx378zt/vib3fRr/+PyunTpo8bdq0Gdwxffr0WbNmrVixIjIy8uWXX16yZAl8o4msKsC4QRQeFkAJlNc8TYChhV6vr6mpIQhCr9fPnj3bxcXFzc3t+eefz8rKgtkbUHMrFIo9e/YMHz7ckTuCg4NzcnJ4PUyDIhEr2QBfEwTBf2fw5UJi4VNMEISjo6Ozs7NMJtNYD5VKpVSqFIpaCDfSMtau2/BE/ye9u3Z/MuApn779unbvOeCpgU8GPNX3Cb+16zYUlZQtmP+Sl1eX11e+6ebm4ePj079/fy8vr3fffRdI9cyZMxkZGQzD8KxaU1MDU/+nTp3CMGz69OlSqVShUFQIDp1OZ1Nz1EJHe2dVmqZB40MQRE1NTW5ubnBwMEEQJEnCdvNadn95IauqM84fWDYKy4mdVH24l+awM2EVV4k4J80RJ91hJyLGViQ073eEQB14xBL2u1AtE4REaaFXAY16mPd58DxI7XdroULrK8/y+O6uaHd3ep+39mDvyqPDf1rbZ8c/ByFtBjLeRkYVItRsoIShFlG1iFQ0CrWIFASKS0bVIpOiPtA1iK5B5hpkliKTBFFViFAiQo5MZYgoRLTs7P9+FxryuokgDXW4oa6BpxV4Go1G4/fffy+y6l0f8MasCg8FKFhgd1t2/eiVK35+fm5ubq6urvv375dIJGq1Oi8vj5+5UigUWq32zl4pW7du7dOnj6urK4ZhS5YsKSkpAasAYU10Op2QcHkCFabhTzIMQ5IkhmEODg56vV4jPNQ6jTXo6nDSZM7OzQ9fu65Xbx+vLt6+/Z7o8ljXzt6PgcGAb78njh79MTk5JXDgYAxzdHd379Gjh5eX19q1a8+cOXP27NnTp09nZGSAybNCodDpdHK5XKPR6HS6rKwsDMOGDx9eXV1dVVVVITjARBc9hKM9sqrQpkzIqmaT+Y5ueuzYsfx4UiqVHCYkjUjKIquyrLr0GSwvZoL8UDfiIMYcwNB+DO1zYA44EHEOhoMOxliMiOGDIxHjSMRgxlg24HEtHyBn7i+U1eCvMdaRT/AwSicOPIL2dEZ7uhpivFWHe6V/1XPHYmzeQOyzkKF7N87as2H+3o0L925cuC9igSDM2xcxb++muY3C/L2bLCE6Yr4gzP12Mx9mf7uZC1te+DZi+rcRz3278cVvN754YNsLuz6aFLv15UXPBrz9T1adCjMGwiENr0+apo8cObJ06VKQwuBjRZhMjAMC/FMAwiPv6MRoNOr1eq1WS5Lk2rVrMQzz8vKaMGFCampqSUkJfOBfvnw5KSlJJpOVlpaeOnUqLS0NGKegoGDx4sVwS8+ePb/44gu5XA7iixB2mAsC+hZyqLBicF6pVIJ6AcdxjfBQ67RaPQRdHV51WypX1lZW305OufHW2++4eTzao9fjXbv3HPJ0kOMjLj0f7929e8+xY8fv2PFFX9Ydlp+/v7+np+fq1avPcMfvv/9uw6oqlUqv16u4w8HBoXv37lVVVUVFRRWCQy6XC98QqOWO9s6q8AHIawAuXLgwadIkhBC4IOPc0uAMIoBVaWRC5npWrY3rZorlKHUvhvY6oH0OplgHKtaBOoCZ+bDfkTrgSB3AiFg2GONaPkDO8JeKwWyC8OpDKp3Z587s60TEPKo93KX6cO9f38U+nIh99gq2cRa2YRa2cTYbNs21DRvnYH8mzMU2WsOGudiGOWwRG2Zh2xZi70/DIhd4zngCC3t9AXQfTdOE4OAnpo4cObJs2TKhVVDLDfiOk5NdVoVHQyqVFhQU+Pv7e3h4uLq6fvrpp+Xl5TU1NTqdjp8MlMvlBQUF58+fB5lOoVCA1SpJksePH3/xxRfvWJh6enr6+PhcuHCBJ1aj0ciTKa924IkVwOXVdzRNFxYWurm59enTR6FQQEEajUatVmsErFp6q1wmV5Im1olAnYFQqjQpqelv/DOkV2+fR1zcHuvWw8nZtVev3n16s86ounR5zNXV1dvb29nZefXq1adPn76jGj516hSwql6vV6vVIBfruEMmk4F7wMrKypycnArBUV1dDYC0+JhoX6zK9wrfMWaT+fjx4wUFBfCMXbhwYcKECfCG0Wq133zzDatZ51iV0xDSiK7NuLDv1WdYDYAyrpcpxgntc0J7uLDPMmeF9jqiaEHY44j2YGgfF/ZzLNyyfyFn+Mvye8MgvNqy5UJu+3hRHaNiHfA4d81Bb8VBX9nBAbcPPXX70FOygxAGyA5awyF/md3AJ7CJCBLLD/rJD/rJDvnJDvWTf+9Tsb+H+uiw2wcG134/pOrAQPV3kw6+3jds2fTGgir/xUqSZFxc3PLly0mStJusxZ+Bv3SGIKJCE2ASCSH09ddfe3t7d+nSxdfX98SJE2VlZQaDobKysqCg4OTJk3K5PCcnJyEhQaVSlZWVFRUVJSYmAh2r1Wq5XF5YWKjVan/77bfg4GDYOmXy5MmXL18WAqXRaOAh5VWTQpYHwjWbzFVVVY6OjgEBAeDaymAwaLVallU1Gi13aLgDbJbhk1zOHWaTWalUrlixwsfHBybZ3NzcXFxcPD09+/Tp06lTJ09Pz7CwsFOnTv38889nz54tLCw0GAw4joMFtE6n02q1RqOxurrazc0Nw7Cqqqrc3NxywVFZWQmSu7BdLRJv76yKEFKpVJMmTcrKyjKbzGlpac8//7xCodDr9UuWLDl69KjZzG4ex5msspNYwKqLgrHs2CnyuL5EzKPMvkfRHjYw+x4lYh4lYt3RXhcU/UiDAMQKfCekuQePs3k6WgJbyiONgvUqm8xK7g9erjCH/az2g45xMMU4UbHORKy7IaazPtZbF+eti+tqDfCT+3uws85uYNOzQR/LBrw+dMZjLcEQ28kQ2wmP7YTHuRuPOCv3YtT3Pur9j9fu7Vr1ZWf1nsCYRZ4fLH3WLl2CQASs+tprr4H2nH9oW2S4d9RMcO4AI9/nnnsOlq7B2l+JRFJSUgKCiEql0ul0Z8+ezcjI0Gg0sC4D7rp06VJ2dnZycnJ8fDxJkllZWZWVlRUVFevWrXN2dgZl6/Lly2EhVnl5OS+o8pAKWRUUshRF8RqAsrIykiRxHAe+g79ArBRFAZNSFMWv+6iurlapVAaDQalUHj9+fOHChb1793ZxcenXr5+zs7Onp6e3t/e7774bGxt7/fp1sJQCaoa/kLPRaCwsLAShGzQAAlItBxUzX/8WjLRfVoVOoihKo9FQFDVu3LikpKSzZ8++9NJLCKF58+YlJCRwSjeG3T+OXQhgYdX0i3sWBWNZcc9WHRyoiXuc2Pe4aS8biH2Pa+Ie18V2J/Z7WCf6XRrOFLlR+92IA9aw34N44EDt86D2eUIw7/U07/VqFCxXuTQtUKK1zp7Efk9in5dxv5chprMhxhsCccAbAs4yY1ddbHdNnDUc7KqpD96agzah/ioQsT62qyBYSJYrBRi2E37EVbHP0Xj0CdX+fuQPgZoDA6jvJv/0z/7v3YOsumLFCmDVFhzrHTUrELhUKtXvv/8eGBiIYdiAAQNiY2OByDQazYULF0pKSgwGQ3l5eVZWlk6nk0qlWq0WyJEgCJVKVVlZmZubW1hYSJKkXC4HsVepVOp0upqamnnz5jk6OmIYFhAQsGPHDtDV2Lzw7LIqSZJz587FMGzdunU6nU6j0QDr6fV6+EKHmSVYqiCXy3EcB0LEcZwgCHA3BXLuHWO7LVu2+Pj48EsYtmzZAuYKwMtCVlWpVPCmSUpKwjBs0KBB5eUsjYqsynYTPAkajcZsMs+ZM+fEiRMjRoyACFxiGDPN2kKye3Cz1LFoAAAgAElEQVSyQ4HWplw8+OIYp8RDC28emlgdN0oeM6p2PxvkMaMqD46qPBQkiw1QxvTnwpPKmCfllhAgjwmQxVpDzEDZAwd5zED5gUENwxD5AZtQn0AWM+jBC+UyGcT9HSKLGSKNeVoWG8SGuKHy2MGKmMG1MYG1MYGKmMGymFG3Y0dVHwyqPDy48nBg9SEIg6sPDa4+OLT64Ijqg0H8ydtxQ2/HBXFh6O24obK4wdYw1JJ5XKA87ikuDJDHPSU7OEB+JODW3v7K7ydJ9o+vOvCP4t1jbu9/cc+ywLCls+4qq65YsYLXvXZUNmypdoH1+/bt252cnBwdHeHp4IU+2AElJyfnt99+S09PV6lUcrncYDCUlJTk5eVduHChtLT06tWrmZmZMpmMJMmqqqr09HSDwQBrAYqLiwsLC/V6fXJy8qxZs9gt/xwdZ86cefjwYZv686wKXlp41UR6ejos4rp+/Tp8ldM0rdPpYEqN3Z0Fx9XcAbSo4Q6DwaDX68vLy8GVn1QqNZvM5eXlZpM5KSlp3rx5Xl5e+/fvB8UFOFEVsqpCoTAajSCYYxg2derUkpIS2F+r3HpUVFTwqnybtjzgz/Yiq8K7ccuWLZGRkWAWfsdZ0ZYtW7Zu3RrJHVu3bl21alWvXr28vLzmzJnz2WefRXDHZzs+zc7OMBpZGx2ziZFWlRX8cXnYIOfX5/ddO9dr22zXyFnuELbNdo+Y82jEHPfNs122zHLZPNtl8yy3zbPcNs2G4LFptsdGa9g0m/0JYfMsD7sBrsItfOJNsxsk3vKCx5YX6s9smuVpG6ylCEvnq8FHmspfWDHbNC94buZCxPOdPl3YbcN07OP5zp/Oc/7iZc9tsxw/muq4cXrvTTN9Pl/q+9ELDlsWOm2DsMA1Yo77Z4t6b5vts2G6d+TcRyLnOkbO8fjXrC4R0zpvnOq5Yapz9HKfyDluX7/W84tFXSJmumya3unjuV03Pod9ucRz57JHt7yIffAsFjHLYe2zWOTc7h/Pe3LLC/7hk7t9/dqIdc/6LBneY9WS+TRN6/Ws33ibQ6/XkyS5d+/eN954A1avizYANhA1/gl007lzZ3d399WrV+v1+oqKitzc3IyMDJiNKSoqysvLU6vVIB5qtVpYtYkQksvl+dyh1WrlcjlCSKfTqVSqrKysK1eupKamxsfHwxpQgiAKCgqOHDkybNgwMJaaOnVqRkYGdBMwKdg2gbUsOBagaZokyTtrPUDOBTNS4DJgVZVKpdVq9dyB4zhYF4Akq9frjdwBClO+8lqtVsMdcKPBYIBkMPFJcgdYB2m12jVr1mAY9uWXX6amphYXF1dXV5dwR3V19d9CA0CS5FdfffXZZ59tth4RERH82pvNmzdv37595cqVS5YsWbt2bWRkJKSK/NfWlBuJcjm7CTgnsCJNrWTdhpW7Pl+1b/Orhza9woeDEa8cjFgcu3nx/ohX921mwx5r+HbLUpuwZ/NSPuyLWMqH/ZuW7t9k+QkJ4EY+8Z7N9Yn3RbCJ7aa3Ke6uP+89f0gpqPDyfRtfO/LJG9+sn3XoX/Njt87dvHLUJyFTDmx680jkps/f+ueuj5bv/OjFuE9ejvt0ftynCw99vOinL/7f5v+ZuefDd759/829G17cu/H5/R8t2v/hm/s/WPPvTyL2frBid9j82IglcZuXfhIyPXbjm5+tWnZ46/vfrH1194cv7l43+5sNcw9/ujIu8p/fb/9g57tvRr3zRtyWDw9tXfuvN5fERHzw5uzpSxbOh0eRn10BptBqtfDBsWvXrpCQEDD/sEkDKcW/NgicO3fO1dXVycnJzc3t448/hs92mUx28uTJjIyMvLy8srIys8lcU1OD4/ilS5fy8/OBX3Jzc2HiqLCwsKCgAGRDmqbLysrkcjnoEGA1AYiZCCGpVBoVFdW9e/dOnTo5OTmtX7++qqoKZEalUgk2qmBOADOQsEZ50KBBHh4eYDBHEATYA/ASMd8cMBUAMwOSJIWsKlQa8GpZ/kaEkEZwwGduZmZmz54979i37tmzp7q6urS0tKSkpJo7SkpKqqqqYMgJM2mReHuRVcFWUaVS8V4PbGYY+dbyagE4w250zBhZW1WOVXEtaztCGCQ0cQuZbiOTjA2UIJhliL6N0P0E5jbiA32bvR1+NpUJn5jhEt81fVP5NHX+vvKnZaxNPlLTZDFCFchUKK+8jhDr+xIRSCPVs64wUB1CEoRKECpDSIqQDtEmWovMWjMiy5GpGBEKVEcjA6qrsry62DSskQ5tVJpQHbuGQCHRIoo9h+tYI2J9LYFoZMaRQa3W1yqQGeFKAhnRnl37w8PXUmyhyEAS1n1VGV7A0el0X3zxBbizsulrNnfxsIcAz6peXl59+vR58sknT5w4IZVKGYYpLCyUSqV6vR5EOZBP8/LyMjMzS0tLQXyDuay8vLz4+PjU1NSEhISkpKSKigqJRKLT6U6fPg36BKVSefXqVaPRaDaZS0tL16xZ0717d9By7t27FwgXugweZ/47w2wynz17Fsy8wDISZqJAzAR9q0ajgS8VkiTBToCvMwiwOI4Lv/H5GX+eYdkxZD3YXV4uXQL3kgsXLkxKSsJxnJdS4Y1SU1NjMBjswfmg59qSVa0IsGvgQIkDgolQL8OvioNZRfCQyL8JuYhGj9cYjCwdc480LNepQ0iNTGpk1rPBpEcmrSWY9WZaS6DmAsVo+WCmtXygaS0f4CSfjI/wic2CxLQ1E0jWfOmNr/KZU0x9ZZrPX3CLnjTXIWSuI+UIaRBSESbcTKETv/6xfMnGnV/8XFJCGElEmg0koyQZFWlmxxmuRx+8feRIXCJhwglaQZA0gaOr5/DQ1w9mprGGjTo9SZpRpQStXL571vTID98/uWtn4snfynR1CKeQWod2fH5+3Lh35i/cevDwFR2OdHXozZBPLl0qOhBzYvgz4z75/LOPt3+67V+Rm7Zs3rTF8m3y3nvvwZfK9OnT33vvPY1GIy5XvZfnm6Ko8vJy0AD06NGjV69eAwYMwDBswoQJWVlZYGmUm5t7/vx5WBmVnZ1dVlYmk8mUSiU/NQRfD0ajsaSkRK1WGwwGmO6Hr4fU1NSTJ0+mpaUVFhbCXZWVlTU1NadPnx4zZoynp6e7u3u/fv2SkpJ0Op1QdQPaVWDtc+fOwXT8tGnTQKTl569gtgoW14KmVWDHTACrAqUajUbhlz5vbACCLVAtjuNJSUl+fn53/A+MHTs2ISFBrVYrFIrCwkKhBkCpVPK8fy8433uaNmNVoFTero2VXLj3RuMHiSdfYQRu5P6SZqbWzNRSJpYOzCY2FWXWkeZa0lxL0SqKVpnNKmBDROsZGqcZowkZWSd41sB6FWkmsI7NrIF1OmiNN3ULn9jMJb5r+qbyaer8PeQPnk3AUyrrQZVmV3CDzwQCR6d/kQ/qu+qVOZ9MGv3/Pgj9TitHZhLhdUa8jjQTSCtHvxy+7esVumNzkl5LE6TOWIcILVo6+wcv7NW0a3VmAuE4K7SmX0N+PdZMH7d/ztTvp4090KPT67t3pqqV6J8rjo8YsvGbnbnLFx/09w2N2p6prUXjx4R8HPlzXR0Ke3d95Mcfb962dSOoxrm/W7hjw4YN27Zt27x5c1JSEox4eETvfUD/DVMajUaGYQ4ePDhixAgMw1xcXDAM8/f37969e5cuXd5+++2ysjK1Wl1YWJiUlHTmzBm5XC6VSmH1UVlZ2Z3Jn6ysLJIkr127lscdRqNRIpHk5ubCAi0cxzMyMkpKSpRKpYZzX8LPEcFje/z4cSi6d+/ezz//fG5uLo7j0H2VlZUgJMG39vnz50G2nTVrFvhwgf4CZahlu1acPQiCgOlKWIYLxMrrTyE9z4kEQajVaqlUCqLV6dOn/f39nZ2dx48fn5iYKJFIKioq8vLypFKpUqmsqqoqLy+vqKgASe5hDJi2ZFV+pR1QJGAEGgBhU4VkysfrWZUxmlENG2jWjxltRhRlZiUvWkfSGpLWWKU2PcXoWctWxshaYoGXZpa2WI9KrEKWc93U4K8JIT5QiP28FQa4JLyLT2xqmBLuapxeeO+9xO89f87TiYVMgVKtf1n7Xxn6+MOskf0/N2vR9/vzRg38MOc6IusskJuNaExQyPP/2OnvvfmDf14mjQg30Do12rX9xtyJv/Zyf19agUwmZCRQrQJd+A/y7xUZtVWrqUSSPDQx+NDMabs1KhQU+NnHERXlxagkH334TtZb/0yoLkdTJ3+088tLMikLtommCYo0sL4cLAdIK+BRGN6s4D0HxBzheBDjNgiAt2aKogiC+Oijj7p27erp6enq6urj4zN27Ng+ffo4OTl9+eWX4FFFq9WWlZXBVKEVe0IikVy5csVoNFqXgLPObYuKiuLj49PS0i5fvlxaWkoQhEwmq6qqys7OrqqqAm+5V69elcvlEolEr9f//PPPwJheXl6rVq2CqSRu9aMRpqegW+Pi4mC7hx49eqSnp4ORslqtBu0fzG7Bxz4sAwFuvdM0XkqFagOxSiQS2EgV3r5arXbbtm3Q/ICAgMzMTDBZBR0x6FWrqqrUajWwzUNSMbUlq/ILqGDdFKumI8nG7eSZ1H6EXVglo9FtmmG3iKAohjCya8wpkwGC2Ww0m4FJSVY4ZR3ds77ubQ4rvQLJcn/NDOKDiUE2AS5ZSPlPpRfeey9xvjLmRpUxWatKW5oF+koT6+GPfTWQrIt/NuhIk1qDXn7h9wXPnlfLUEYi8vVenZWIlDJUp2e/0wkCffnFqcpSNGLgVwd2q+sMSKVH2X+g8aO+/eUw6uH10bUkfalUb0BIoUNnT6MnfHZ8+G6V8jY6fwoN6P/N7Hmxktto1qwTj7qvX7b0evgHRd99jxQKJJejp4PeOXiwoKyCY1XEkAxtYpXibOCnpPixDhbjjT9cbAhF/AkIGI1GiqJgxr+iomLRokVAcE5OTj179pw3b56fn5+vr++pU6fA8WhaWtrVq1dhlglyYBimqqqqpKREr9dDdxAEAXNWhYWFwFnAgDqdLj8/PyUl5eTJk0qlErbAwXEcDJU++ugjV1fXzp079+zZ89NPP4VJJJBt+YmsxMTEgIAAsAP79ttv+c8RrVYLJnfwOQ/EDToEkFiFfAqsyptGaTSa8+fPDxw4EMMwPz+/GTNmFBcX6/X6srKywsJCIavK5XJ+mDVmmxYZUe2CVUHy55SkDZwY8f1tw4ANfrKsWksjhZBVzSaGVbiYSXblVf3Da2qKUhtkyP2wJVkhozXkU7j3ftM3LrH5M/eYP2QioFQGiJVnVVZ2oNCkUQcXPndep0DZacjbdVluGrqZi3Ky63LzjKwQqkGEAU0YvSfq02qTGd2WoxHDPomNRqeOIXeHDanpyMCgKg2hItDFS8jbK3z8uCOBA7/CsDfmzf/5/y6QtXpUUYm2bKmcM/f4hAlxj7qH/iuypKYGTZy4fsOG/63DkdGMjGbKaKZIkyXAswRuAcAih3/SHtJK7RZ5eNpJJmaTGVbxg1wCM0WXLl0aNmxY165d3bhj/PjxCxcu7NOnz6xZsyoqKjQajVKpzM7OTktL41dtwoqb5OTk9PT0vLy85OTkqqoq+OqXyWT5+fnAqgqFIicnB0jcaDRqtVqCIMBTh8FgkMvlaWlpgwYNcnNzc3BwGDlyZHJyMhRhNplhnT5C6M4C07Vr13p6emIYNnDgwOjoaEjDL1OGbxeh2pSXrIFP4S90weXLl+fNm+fq6urs7DxmzJg9e/aACVdycrJCobDRAMD3ED8r/jA6sc1YFbQqPJXw0so9NpK/kSVKixzGOTBnp6zY5QA2hyC9JXqPBVmS8R5F+Ujz9/PJ+Ejz6e/3Kp8tH2mUg4Vb4a3CmEwIp2ijXKGt06AXn9s/59lDymqUmoR8eixJuIxeXrDTw23y4z3nZ2aaFSqk1aFxo/71ScRNpQzt2pnTw+uDF6def2mqsv9j/7tw7o96HFXLkQ5H15NQn56h/9qScepkXdYfSG9At6rYv1FfpJQWo6pKpNegkGXXnhv/g0yCRj79avTu3w04K6vyoVGtxRP3jYBwbAtvJgji559/HjlypLu7O4Zhffr0GTVq1Lhx45588sm3335bxjk8NRgMKSkpV69ehRt5riwoKGANOfR6cAJtNBrVanVKSkp6evq1a9fkcjnDMFqttrKyMi0tDVaTkySZnZ2tUqkUCgVBEN999x0s9PL29l68eDHv/QRcAcC788SJE4GBgV5eXpzblC7r1q1LT0+HmgilSH6mGuauecG5sLDwm2++CQoKcnJycnV1dXNz27hxY05OjlqtrhAcZWVlsP4VqJ9nBsANimvZv+2CVf9Ek4QjyRrnjKu4vKxnmvv/Jwr9a90CjbeOIZJGrP0ASSCGQJvXnnv6yfdrb6PITReGPx2qU6P8XJSXgxL/SyiUSM/aRKEpEzft+uKmQYcO7Cl4dsLuOVN+nzfxZhds54rFxzUadprPQKD0VOSITdnzbbrRyIq0VTWsYX92Tk2A/4v/782vcT2SStDb/3Nl+uhYWRma90LY9wcvaGrrKZV7A/61QG2PtW1qlINGUqVSbd++3dnZ2cnJ6Y6zlaCgoJdeemnYsGHdu3ffs2ePVquVSCTV1dVnzpwpKyvj5ValUlleXg4rWYHFJBKJkjt0Ol1lZSXsyQrcl5CQcPr06cuXL8M6AoPBAJ72NRrNtm3b3N3dnZ2du3Xr9umnn+bk5IBWhydNgiDi4uLGjBkDKgtXV9fu3bvPnDnzhx9+KC4uhtXqvFJCp9OlpKTccUS9devWSZMmde/eHbbs7dat28SJE9PS0kpKSmpqanJycioFB6xetdlgtcPKqg9vhDYeZw+vrHabs4BVWZNeM6M209xyJhPKSkGL5+57Zug6v95vbFp/Vq9DLJkaUB3BtqbOTCp15Lx567+MuihXoqrbiKKQRoniz6KnB266kVpnQqisWkohVFyMAgYs+mjtdwCCGidphAgKLV700WNdxk6f8tawQa89N2H7oehbjAFNGrti8/p9ZoJ1MiYeLYhA49HOnwH/JgaDoaio6I033gDm6tq169SpU2fPnu3r6ztx4sTk5GSapuVy+fXr15OSksA4iZ+gT01NvXbtWiZ3wHwX5JaXlwcKgcrKyvT0dOBKUCzw7sdAzs3Nzf3ggw9gowEwVkUIgYcB4Gtg2DvzTqtXr+7du7eDg4OTkxMsjXXhDgcHB/AXA65aO3XqBA1xcXGZOXPmjh07iouLQYEL01zg5F8w/q2iRcP/kKAFO4LPqi1lVb4SYuRhIGAdVSbW5oExcoa0esQgo579As9ORUcPlSUnIJ0aGQys7ClXk7V1dUZ2gYC5zmQ6eyGHnZPiJrt0BCJMSK1CWX8YtQak0Kt0FLsOqlaDkpIVtWpWG3BbiRNmpDOYaXZzeVSQR/x4JC3lml6nRGo5MhvQtSslejVSyEiRVVu2u3kOtYnAWnsoC+ZnUlJSRo8eDZQ0ZMiQ5cuXT5061d/ff8mSJTDXhON4YmLi1atXQTwEFS2sEL2zBxR46oMp5dLS0jsbc5w+fTozMxMYraKiQq1WJyQkZGRkkCSp0WhKSkpgNon3HeXh4QGKcmBkyJNncKVSCa5Rf/rxp5CQkBkzZvj6+oI0Cr5dunXrNmLEiLlz565fv/7s2bN39qamKAq+68FIwK4i0fogNORU2jKx27J9AbmJrPowUG0veXLjidU70wzOzubROLv7H4lMBNKrkbbWslBKV8dOYbFGvGbKSBuMjM5IGwgTy6QEzRCMkUQ4wRhNnIxppOvMrJJArzXgWj1rYkWQqA5HdUZEmBFlQiSJSAKRRkTgSC5F8hoTQSDWks3Emc1aLGdFefXhDhIbKhES7u+//w6aVldX14CAgPfff3/GjBn+/v67du2SSqWwRCo+Pr64uDg1NfXChQtarVYmkxkMhtzcXDBvIkkSdJcajQbHcYVCUVNTA4xGkqRMJktNTU1LS9Pr9SCNqlQq8Mjn7OwMJq7C+vBsx0/3w1QV/OWv3jUizFMIrvB847gwZUvFRVZtKSTbYz7cGBKwqtnIWuia2C96imT/cqt8WTY0mEijmTDSdSylMiojoyFoM2FG7F8GJ5GaRLV1phqpqoREtbV1EhUu5RZOIJXWpNHTMGemqSNJit3rhuQyp0hWCjYQZhO77I21UkWI5IKoUH3oowXowy4TwWL/iIgIDw8PZ2dnFxeXKVOmLF68ePjw4QEBAd9++y3YEqSmpioUCpVKBfpZ8B0VHx9/Zz+OK1eupKSkwOI32JM8Ly8PHAVUVlYWFRWBDSlM0ysUinPnzv3+++9gpgqmskJ2s1vJP3FSmKcQX+H5xnFhypaKi6zaUki2x3w4AwkKbCS45Q8mWK7FrvZi2P2qSY5JTchAsuKnmkC1BFIQSMr+ZXCWUmmGoNmFVyRS1+IlJJJJVSV1VK0ZkSp9rUpfa2bteJEGxzU4ziBEmswQCMpEkDSsRCNIRJlYeZlBOgbVcVbDoqz6cAcM0IddboIpdYRQUVHRvHnzYP69c+fOs2bNWrp06fjx44cMGfLbb7+BvaNSqczNzQUngQihyspKWJ7PMIxarQb51Gg0FhcXJyQkXLlypaSkBOaswISgqqoqMTHx2LFjv/32W1Os2pjpmqm83RbBSWE+QnCF5xvHhSlbKi6yaksh2R7zsbIquzYXVpSx48/MLm0ysesDkIHS4SYNw37HA6UCq9Zw3KonGJJjVYZk1QM6E1IakZxBRiNdV0fqQVegJZQ6QkeyO4ebcIpgTVDNBIQ6o2XBFm6gKRNBmXU00tJIL7JqK4yV5okJrA+hGqdPn+7duzcoW3v37j1p0qTXXnvNx8dn1apVqampDMNIJJLk5OTMzMyUlJSioiJQtoJdKrg9ZRhGpVKBw0DIGSy0ampqTpw4cenSpRMnTkyZMgW8rDbWADRmuuYr3xSxCvMRIiw83zguTNlScZFVWwrJdpsPbXF30GhRmRmZKZqkWJ/fZoo2UjTOBoZd2ksxehMymhjSxJi4QLJKV2Qwc7pTM6JoxHoItzpEYB0TQErSTECeFE2SlBFWYZAUt7aNMVosi7maWI1W2y1uf/mKNWYQOCNsGEw9abXao0ePdunSBXapCggIWLJkyaBBg7p06bJr1y6DwSCVSouLi/m1Bvwy4sLCwgvcAW6xeHup6upqsGM9d+7cgvkLvLy8HBwcXFxc1q1bB+JtU9JlU3W+3/PCNrZ+XGTV1se8tUu0riizXaoLywQsiwUYE8+GHMMCpZIcsVr+CjkUFKU2OZgaZEJa1gpzvheA2a2OFfhFAKKC9SEOhqaYqHGRsEL0jhQJO107ODhgGDZkyJAZM2Z07tzZz88vISEBliTBpgCgma2uri4vL6+urgZVKfhpvbP7UVZWVnl5eXZ2dnh4uK+vL6zKf/75569fv15dXQ17E4is2rgXxDN/JQSsrGr7lDXmxHrJlJVSbcNdWJVbxEWZzWzgRGCRVdt2lNj2t/W3sFbgGxDO8FuqTJw40Yk73NzcZsyYsWD+gh49eowZMyYlJQXmrIqKijIzMy9dugTeWJRKJTipUqlUsPlVTEzMsGHDYH/poKCg/fv3p6WlgcALE1lCVhXWRxi31vfP/Bfm0/pxUVZtfcxbu8Q2ZlXWQxjn14Z1+QXOXkRZtTXGQFNsZFM2zEoZjUahb6OTJ08OHToUNKEYhj333HPDhg3r2bPn6tWrweeTRCIBh6dg/w9bDaakpFy5cmXSpEne3t6urq5eXl7h4eGpqak4jms0mqKiotLSUjDeElnVphfEnx0QASvzgpbg7n+FEAifXnhahB5tuFkyUpi/VaMK3CrMSYy3KgLQceCQE/7CZz64KzUYDDExMRiGubq6gn3r4MGDe/Xq1a1btx07dsCyAnBGJZfLExISfvjhh7fffhtmvRwdHUNCQq5evapQKEpKSjIzM0EtC7tUwQYq/JpRqEartvwhFybKqg8Z4L9I9kLWu5e4sFkiqwrR+AvFeVaFdyG4jddqtTDpBLx5ZyPr0NBQDMO8vb3BNGrixIk9evTw8vI6c+aM0WgsKipKSEjYsWNH//79XV1dHR0dFy1a9J///EcqlarV6oKCgsrKSoIgcnNzJRKJQqHAcVxk1b/QIBGr+ucRuBcmFaYRliRkVWtcIO3ChgsWCwT2vCirCtFrw7gNq4IbKrB8IggCdhJTq9WwNcDzzz/v7u4OK0c7d+4cGBjYu3fv/Pz8Xbt2BQYGOnNHYGDgr7/+mpOTU1BQIJfLi4uLwTNWQUFBdXU1byEATbYOFcv/NsShxYsWZdUWh/QvmaGQMe8lLmykzePB/RRZVYhQO41Dx4GgCqtFGYaBfU/Bw5PZZAbzALCp+uGHH0AgxTCsc+fOGIZNmzbNzc0N9h345ptvioqKYErKYDDk5+eXlpZWVFSUlpbCTi1Cn9OwEkE4ctopRn+qWiKr/inYOvhNwtkkYfzuzRY+J0J2FuXTu2PXFin4/mrslwTOwIYdvPfo0tLSjRs3du3alZ/I6tSp05tvvpmcnFxaWqpSqUpLS+XWQ6FQaDQag8EAHC0sCzIUzlnB1bbAoOXLFFm15TH96+coZFJh/O4t458cLlIvsYqsenfs2iKFsL/slg8JeHkWFlZVVFSsWrUKw7CFCxfm5+eDC2qCIPhtUPlt+2CXB74UyMfmL3/VRkVgtz5/iZMiq/4luqmVKylkUmH8fqshvFcYv998xPQPC4G7MhqfgCdWMKUCy3/YOdVgMIDda2OBF263oVGbn3wRIqs+rG4W820HCAgZUBi/36oJ7xXG7zcfMf3DQuCujMYn4A2hcBzX6XQ0TavVamG1YHYLdpy24c3mf/JFiKwqxFOMiwiICHRkBID4gBxBJWqzYQmveLU53zyfwlWRVTvy0BHbJiIgImAXgXtkVeEc1L3wqciqdtEWT4oIiAj8LRAAY86qFe4AABp8SURBVABYgtWYPXkBVpRVEULibNXf4pEQGyki8IAItD6r/nXVrCKrPuBgE28XEfiLIQA78ZWVle3du/fIkSM5OTnQANgnKjs7Oz8/Pzs7++rVq8XFxdeuXcvPzy8qKrpy5Qr4YYHESqXyypUrvGRaU1ODEEpNTc3KykpNTc3Ozi4qKjp79qxEIikqKgJnVwaDIT09XSKR0DQNuwSCi2scx6OiomJjY1NTU2GjAbDfgoUJ165dg53+EEJGoxGotqKiIjs7G7YR5NWy7acbRFZtP30h1kREoDUQyM/PDwgI6NWr14QJE4KCgjAMGz16dFFRkU6nS09P9/T0dHR0dHFxcXV1dXZ29vLyAlfWQUFBMMsPllWvvfYahmHh4eFarRa2/NPr9QMHDuzataunpyfsOw0bTcNi1sTERIPBEBwcHB0dDSu4gDoXzF/Qp0+fUaNGdenSZezYsaNHj967d6/ZZNbpdCRJZmRkeHl5LVu2DExigUA1Gs3MmTOnTp0q3KG6XQm2Iqu2xjgWyxARaD8IvPLKK9OnT9fr9dXV1QihkpKSbt26TZ8+HcgxMTExNzf30qVLhw8f7ty58+HDh+Pj4wsKChISEgiCADNVHMfBp3VwcDC/MSpC6PLly9euXUtLS0tKShoxYsS6detSUlJOnz595coVhJBWqw0KClq/fj1AQRDEnQ2yhg0b9u9//xvE5/Ly8tdff93DwwN2JDQajWVlZeAEKyYmRq1Wg0SMEBo8ePDw4cPNJjMvqIqs2n4GmFgTEYG/HQKBgYGrV68GDoVP+O+//z4wMDAjI0On0/FbWl2/ft3V1TUjIwM8AyCEgPsQQidOnOjbt29mZmZQUFBcXJxOp4NLOI4DuxEE0bNnz6ioKACXoijYInDcuHGRkZF6vd5oNIaEhIwePfrSpUsMw8BkF0EQGo0mJCRk6NChhYWFFEWVlJQ4ODhMmjQpKCiIX3GAEAoODp4+fTq42eaJtf10pCirtp++EGsiItAaCPj7+0dERMhkMtBUwrc2r+gEYkUIJSQkYBhWUFAA/v+BVWmaJkly6tSpC+YvuLNL65IlS0aOHAleVkEtS1EUMOzAgQO3bt0qtA1ACPn5+X3xxRew7VX//v3ffPNNqANQPI7jZpNZoVD4+vp+/fXXOI4Ds6ekpPj7+8+ZMwd8FTIMM27cuAkTJsALgDfh4um1zeVWkVVbYxyLZYgItB8Ejh8/7uzs7O/v/9JLL23bto1fIkWSJMiDMAuUnp6OYdiVK1d4R6sMw+A4LpfLvb29z5w5o1Kpfv31127dulVXV/OUSlEUKEz79u378ccfN8WqEonE19c3JCSEV5gCrVdVVSGERowYMXfuXJqmr1y5csfbQE5OzsmTJ52cnHbt2mU0GnEcnzZt2owZM4xGI0+p/NIv4Na2RVtk1bbFXyxdRKANEDh58uSqVavGjh3r6+vr6uo6Z84cUH3CTJRKpWIYprKyEsOwtLQ0EC2BcCmKWrNmzaBBg0B0pSiqS5cuL730kpBVQVYNCAhoRlZNTU11cnLKyMiAxqvVatADgFw8bty4WbNmabXatLQ0Dw+PpKQks8m8cuXKYcOGVVdXi6zaBiNGLFJEQETABgH4KIa/8BXPMAzoMXft2jVu3LgBAwYkJibCXZDs7Nmzjo6O2dnZ8HkOSkytVtuzZ88XX3xxw4YNO3bs2LVr17Bhw/r37y9kVYSQUqkcO3bs+vXrm5JVs7Ozu3TpAvYAvB2V0WiEsvz9/WfMmHFH1ZCQkODo6JiZmYnjOE3TgYGBixYtEjUANp0r/hQREBFoAwTgK95sMv/nP//Zvn07TCvx3/tarTYwMDAiIgIhpNPpIHFiYqKHhweYmsLWAAzD7Nmzx8XFZdy4ccHBwRMmTJg8efLw4cMxDPvpx5/4IoCUR4wYsX37diGrMgzTt2/fnTt3gkQ8aNCgNWvWwF0gDoMSoLKyMiAg4JtvviEI4urVqw4ODqmpqRRF3THMOn36tKOjY1RU1KRJk8aOHYsQ0uv1oATQ6/WiXrUNBpZYpIjA3xYB+Co3m8wpKSmOjo55eXkw8wOTRRRF+fj4fPLJJyByGo1GtVqdk5Pj4OAQHx8PoBkMBoZhlixZEhQUxMMIouXs2bOnTZsGjKxWq+Hk4MGDd+zYIWRVrVbbt2/fL7/8EiGkUqlCQ0PvTFhVVVWBrAp/a2pqVq5cGRwcXFpaemc2rKioCMOw9PR08DF4Z6/Wd999t0+fPgMGDJg6dSpohIFV29WKAFGvyo8QMSIi0GERgFVJNE3X1NT07t3b19f35MmTIDMaDIZFixZhGHb+/HmgWqCw3NxcR0fHwsJCpVIJbFtUVOTv7//VV18Bb8IUvFKp/Oabb5ycnK5duwbMixAiSbJv375vvfWWkFUZhhk0aNC2bdugXK1WGxwc3K9fv8zMTKlUChLu2rVr3d3dt2/fDnrb3NxcDMNKS0tpmoZtBEmSDA4OdnJyAlmVNwMQWbXDjl2xYSIC7RMB2JIamKugoMDf39/Nza1Pnz6wr19gYODhw4dBboU0JEmCBiA+Ph6m1+9MuEdERAQFBeE4LpVKoZkMw2g0GoZhAgICVqxYAYudQBSdPn36Z599JmRVrVYLrIoQkkgkZpMZx/Fly5ZhGNatW7cF8xcEBAT069fviy++QAiBHHrt2rU7u2Ndu3aN315brVb/+uuvnp6e06dP5zUADMOIGoD2OfDEWokIdFgEhDpHUKdmZGTExcVt27bt/PnzIOiBclNoQHrlyhWCIEDdqdVqCwoKSktLKYrS6XSwronkDoZhYIdqWHkF5quZmZkajUY4i2U2mfPy8ioqKqAgWBeg0WiKioqOHDmya9euU6dOCdWsBoNBrVYnJyeD3EqSJG/2n5KSkp6ezvcWvAn4NvLn2yoiagDaCnmxXBGB1kOAZxxwPSWTyXgzVZD4oCqw3xRv9k/TNDAgwzByuRzICwRVmqZ5zSzs9wdXIR9eRSBkVeBrSACJYWUXSZIGg0Gv12s0Gj4Nb/fKLytgGIYkSb1eDwoEs8lcU1PDb5BFkiTk1nqYNl2SyKpNYyNeERHoKAgIWRUkTZAoQboESgJGAxo1Go08aQIGwGUwp8RzH2z/B6Iuv801pOdNAnglAEEQcLter1er1TRNK5VKkiShbjzSUAG4HSbZEEI4joMdAl80XyuQl0GM5TNp24jIqm2Lv1i6iEBrICBkVSgP5qAQQjKZDMgL6AxoC1gMIcTvOw0rWUHUhZQ8IZIkCdtV8V/iwLOwvRXM0YP0CopX0B7wDgfAFpUkSaVSCclgbo3XBkDleTcukCHIsARB8FKqUFhuDUybLkNk1aaxEa+ICHREBBozLLSy+fN2kbgrkfF5gl0B/7OpCMyMNVUWT8d2E7SfkyKrtp++EGsiItAaCAgZTVhe8+eFKfn4XVnVJqWwiGbi/F3CyL2XJbyrTeIiq7YJ7GKhIgIiAh0WAZFVO2zXig0TERARaBMERFZtE9jFQkUERAQ6LAIiq3bYrhUbJiIgItAmCIis2iawi4WKCIgIdFgERFbtsF0rNkxEQESgTRAQWbVNYBcLFREQEeiwCIis2mG7VmyYiICIQJsgILJqm8AuFioiICLQYREQWbXDdq3YMBEBEYE2QUBk1TaBXSxUREBEoMMiILJqh+1asWEiAiICbYKAyKptArtYqIiAiECHRUBk1Q7btWLDRAREBNoEAZFV2wR2sVARARGBDouAyKodtmvFhokIiAi0CQIiq7YJ7GKhIgIiAh0WAZFVO2zXig0TERARaBMERFZtE9jFQkUERAQ6LAIiq3bYrhUbJiIgItAmCIis2iawi4WKCIgIdFgERFbtsF0rNkxEQESgTRAQWbVNYBcLFREQEeiwCIis2mG7VmyYiICIQJsgILJqm8AuFioiICLQYREQWbXDdq3YMBEBEYE2QUBk1TaBXSxUREBEoMMiILJqh+1asWEiAiICbYKAyKptArtYqIiAiECHRUBk1Q7btWLDRAREBNoEAZFV2wR2sVARARGBDouAyKodtmvFhokIiAi0CQIiq7YJ7GKhIgIiAh0WAZFVO2zXig0TERARaBMERFZtE9jFQkUERAQ6LAIiq3bYrhUbJiIgItAmCIis2iawi4WKCIgIdFgERFbtsF0rNkxEQESgTRAQWbVNYBcLFREQEeiwCIis2mG7VmyYiICIQJsg0I5ZlcI1Cg3eJqi0caGURpKTeVNB3aUa9gFiz+JN3kq1OqatX+JdYGvpy5RGqoBhar9D7qO8Do/VfWDxV07aqqyKSzJvlGrq4VLcTMyUNMWbmouRIVHxTV2tz6R9xKgmeew+6ye5uD0sNCIqevfuM6V4zqGI9UdvNpEDC9DuG7YXS4+Ghx8ttT1r+Y3HR90PptKLUeuj4gUd1kS2zZy+zxKbyanVLt1nV+YcCF1/XMrWzn6H3Hu92zFW94lJ022m7paTMEHz47/pQpq8Isy8yUQtcKE1WdWWJyXH1oceyGmqETd2h0RefKAnuqmcW/p8Cz4NiouRofWvEjzn+KF4SVPVTbQHkPR4hB2qtWaRGR1iYQDrmWb/SxMPHct5sPfafZbYbHVa4eL9d6VgENvtkPuodDvF6v4xaarNzb7x2ZtsEjQ//psqpanzNpk3lawlzrcmq97Y3eCZridZCtfw36yUBuI5B0LDD2VKchIThd/C9lIiSqNh0yUm5kgaSIwUzp3OvCnVWM6zn9aJNjk2cTMLLoVLb2Y2zNdeWZnRIRHHSjXswZZj7y7cUjAnqdtJYOlKFpLIM1I2JxYQKxbsVWiMAIt6GYm9qmArmnlTctGeMEpxrc6R5BwSyLFwixUyylJ5riIUzrXE8g/qBskTcyTWnmpUIUhnSX33EtlaN4E9X5Z1WNhBrKl7+VpAo3nAGjaXS2UnC5uuRFSDjmOrzDaMz7SBfNqgQyw9YoWX60DhGOCrackyUdg7jYcphWtgKAqKFmRhHQCC4nhwbe9o3G8NGtkYaltM7KDAdqXlUZE2fAS5cWl5MKXHI0KjEzXswQ2iRs1snMA6AOyV2Twm95C5LRdQ8PyyuDYY+g2AvqcfrciqOQdCG4im/Ktd+BJhu5D9npIeXx8Swn4JR0etDw1Zb/mmbSpl+Pbo6OjdkWEhIVGJIFsp4neHhYZH7o6O3h0RZiVzafyB3WzCiLAQy1cyW0zjm63IZR6Lio6Ojt4ebs3XbvLSo+EhoWHh4eHh8LVu964wripRx1jRvFECa3noxm5LTuHbz0hRZrRFWqdKj0eEsY1ha87Bg1C9jITnHFofyuXPQmVtqzVPTqOwPsoCj0WO1SRGh4ex4G4PDwmLzsQRWzIvxVroQXrc+imB34i2gBkVeYhtgb0KWQtE91gi18WNsMdvHo0I5fqdg92i4WiEmN2O4GuAJMctmeyO3H1RgTSJlvqzAFnws1u8TVeypdR3HNtormrsQAPUEOIHsaBD2PJs4OVKq8+Kr6ldrBoP0xu7Q8Ii2KHLNqCRgsde8/iqR0WEhvBtttdvfMrd3OhsBLUNJnZRYMctO8aio6IvKqyNwzOjw+As5MzKvPCchHNqpUbNtE3Af602VWYzmNw1c7sJrJ+J7BdfdKa1Iff/v/VYle09K6osBYVZxwf7hrIqAqy0WS/HIm7kwhPfVMrdidBwnhpKj4aH7rbwaz058OiwVeFAY4tpdDOfjI/c2A3j0m5yYaX4O9iI9a4mv6CsCfi7WPm8XidqxQJP3B0WcRwUAWzNOabhqsIqVdnc1x+zqAmst/A5CoHg6yE5tj5s9w14+1ghs/7n3mdhbHfwXSA5HhFmBZPL2G6FrEXec4n2wGzQGP6hsmZdD6m9e/lU+I3dYTwiCN4/1vpzBXBaUHtZ2HQlDxibNZ64O5TPlWUarhvq5VMuP07LbQ/eBlnxNbWLFX+VY2JumLKlWLqYHwB8Mvb12qh5bG2sFIHHb4c3pt1+s1+zeqgbYmIfhUbDjq0cV4VEgeTKCwl81SHCP402CaxPg/0ym8WkvoSmMudT2EvQFCb8TXeLtBqrsiBHHpdorEfOoXDgUmET+C5s8EQlWkjtbin56/UUIfxEwyXxR6MiWJEyPMwy5ATF8DfziCkyj0dHrof0QHb2ktve1+xdbN6NE1hLbMj/VizYbuffRmGhIYCaVUZir/JTVo2UqkIgWNGXeznd2F2fH/tu47TX7APOcqniYqSFQq2NbZAHW1X7FbI0okHqZku05m95M7Ac0KAx9YTVGDE791pBbJgJvNx4KZx7Q4OwaicL264UJLHJVXIMXsv1Hwz1QqtdeIVZ8TW1ixVqPEyF46IRgTXIhK0F17wG5VlO2u+3BikbD86GmDToIFY654QTYf34xiGUcygsJDQ88lAiKAVsat64mTYJrLnevUybG9kB1ehRt0nTfAIbehe06R6jrcaqDXu/XhLiH3bB04WsrymuEfwP60PaVErrAGnQD9aTOQfCwqLiOVZPjLbM2vI5w8MnnBxjp40ijuawKs7SY5YJILvJG/TA3e5iSatRttaeEsoXIINy0gYL3NGbmvqDff3zlCOEteETYOE/nnKt44pFJyq+PjtQXbGF776BJ+4Ot8g91sbyYpm1mpyyoFGFLFcbQN9sidb82RutfSRsjPWhsoeYvXut1WNBELCoDR3yd/IRQfENupLDuP7LQVg1pDgTyamaADSuZL5D7MIrLM1a0YY1s2JlZ5gKx4UVFfuZ8M9Ng/KsP5oaSHwj7UHdEJMmUbDKxXy9IEJJEqPDQ0K2X9Qgq5AAF+w0s2GCeoK4a5mNMLlr5vYT8NKJtS9sGnMfP1uLVa1da62aVdbiHinr5421CwU4aRJ3h1k/V1l8LR9CdlLWTyCywzA06qJEo5HcOBoJDJpzIDTsENgo8bnzkcazj2wW2y1mXdZn3m5yjkYsCghuJDR3l90EVkR4boET1lJZ8SM0OtPyJWWxS6knr8zoEP77T/DWgTxY2dWKGC/HshJGJJgCIVRvasJ2UEREmPXx4BvbIDmXrb0KWRtxzyXy+QuxzzkQGrL+UI5UI70Zvxu+se+5I6w1aIgXK1lHhESe4ZR9grFkr/gGXcmJ5LxiCrHvfssvqvRYRChoZOof+PoOaYCXBV5haXw9uZrZ9o69YcqPBMGrls/FbvMELcFvHrKqe+z1m7BmTUDNq8jYGYEmUBDKI3zVIMLqH9jLgoeXe2E1ehobJKh/0961zEayRBMYWqG2X7oAMht6t2nPPf1sJVatH3VQKwHJKhKjwrhP0jB2quVYKUKa+O0hljOhoRHRiVb9t52UAvWRcIAoErlv/Yio3ZFh8DCwqnPLd3RYaL1qshGJWEGTnokIhfRhoSD7sIOucXIu35DQsLCwyDNS1PxdrPTYKFtrgbycAScE70t26sUKh0WFrrm4ncWKtZJk5zsawsfniBA3kcU1g1UdWKRQdu6JuyM8LDTiDGdpaVGDWVMIlKoI8cnDrO8lOxXiy7zHEu2DifCbZ1ily/rI6O3rLTN1jRFr4l6+CoLqsUISV//QsPCw0ND11rFkN4uGXSlMwmbN5cplE7b9+E1QSt9kv3F336BYvPgO4fHi4bXNylpTO1jZGaaCR8XmxcvlY6d5bHmhoaHQ5vDd8dbnRwBMKAykhjVrDDVqiIldFIT1s7YMKc5EWJ6esPCoi6zWn6V/9lRYWHQmZAszV9ansWEC4dNgB3lhmYKXDhRvB8OGmdtLwMpk1oeCf1L45txvpJVY9W7VEtoQQVrWtsFqxCO8u3FK4dWGceqm0JSIs+Sx2lg1TGj/V1NVsE0tNPcCowx7Fefvutds+RvYSAPLJ+5KvZgJV5ssky2vUbPvsxKNUW9cofr6PnCJmvioUKs1h8XOpcnm1RcriLE1EEyU3HNrG3alIEMuaq/N9VbtDTqkidFrmyMMF2FV7fZ149sanLFpnoVnGvcZe5O9Nggys8mKu0Ng93gPOVgzY3Nq3DBhpzS6zlZOkMCa091rLUhpidppZsPM7SR4UHuq+lq0E1atr9ADx1gBnrNzCg8LDdvOvScfOE8xg4ePADt1b+230PWHHnD1wcOvb7stQSjItdtKduyKdTxWhdexpvGLsGN3ZAdoHSfdWE3EO0B72qgJ9mXUNqrM37PYjsiqf8+eFFstIiAi0D4QEFm1ffSDWAsRARGBjoKAyKodpSfFdogIiAi0DwREVm0f/SDWQkRARKCjICCyakfpSbEdIgIiAu0DgVZl1Wa8VituJt60Witbkak/Z3ujNYX4X0RAREBEoL0h0Jqs2nAlh9CZHbuUwroi0IIQa774/9u7Y5yGgSAKoPeloaFJS8MxaH2DNBTUtNyAJgUNR0ATx86yIkozWlua10UK3njeoi/Lkr+XB7r7A/eG6HwIECCwCoxM1etj0+efb7Iyqlcf2ha8+eG6pe+gO3A9eR8IECCwO4GBqXqztTquVJ+Px+sLQ76mw2F6f326dA95WGR3/zZOiACBmwLjUjUKVubGheisblqrz6H69hOXrpcm4ChpjiqaucWub2a5OYsvCBAgsL3AsFSN0Py3tXq+Uv0+vwrsMH1+RPH9qWkQbW4UbM/lDAgQIHBHYFiqdvdGr1m59v1GM+ZjVEtHzVoUh81tZd2Bd+bxNQECBLYVGJWq/b3RtbW6KRI9HV+WJvpI2LkKtz9wWy6/ToAAgTsCg1K1vze6ZmUTqu2ZLq9R+vsaivYvfCZAgMAuBQal6i5nd1IECBDIF5Cq+aZWJECgsoBUrbz7ZidAIF9AquabWpEAgcoCUrXy7pudAIF8Aamab2pFAgQqC0jVyrtvdgIE8gWkar6pFQkQqCwgVSvvvtkJEMgXkKr5plYkQKCygFStvPtmJ0AgX0Cq5ptakQCBygJStfLum50AgXwBqZpvakUCBCoLSNXKu292AgTyBaRqvqkVCRCoLCBVK+++2QkQyBeQqvmmViRAoLKAVK28+2YnQCBfQKrmm1qRAIHKAlK18u6bnQCBfAGpmm9qRQIEKgtI1cq7b3YCBPIFpGq+qRUJEKgsIFUr777ZCRDIF/gFD1MnXl5gehMAAAAASUVORK5CYII=;" vertex="1" parent="1">
          <mxGeometry x="-170" y="450" width="536.96" height="380" as="geometry" />
        </mxCell>
        <mxCell id="qRNsrfF-e12Ca53EKvlB-11" value="4-20mA" style="text;html=1;align=center;verticalAlign=middle;whiteSpace=wrap;rounded=0;" vertex="1" parent="1">
          <mxGeometry x="330" y="370" width="60" height="30" as="geometry" />
        </mxCell>
        <mxCell id="qRNsrfF-e12Ca53EKvlB-19" value="" style="shape=image;verticalLabelPosition=bottom;labelBackgroundColor=default;verticalAlign=top;aspect=fixed;imageAspect=0;image=https://images.tokopedia.net/img/cache/900/product-1/2019/7/15/25009714/25009714_1a2de1fa-9593-491f-847a-666ef4b0d6f1_1000_1030.jpg;" vertex="1" parent="1">
          <mxGeometry x="-310" y="20" width="410" height="422.3" as="geometry" />
        </mxCell>
      </root>
    </mxGraphModel>
  </diagram>
</mxfile>
